solid Montagem1 - socket set screw cone point_iso-19
   facet normal 1.000000e+00 3.199237e-17 -4.883247e-16
      outer loop
         vertex 4.545568e-01 1.136554e-01 1.938874e-01
         vertex 4.545568e-01 1.139818e-01 1.938343e-01
         vertex 4.545568e-01 1.141472e-01 1.944393e-01
      endloop
   endfacet
   facet normal 1.000000e+00 3.199237e-17 -4.883247e-16
      outer loop
         vertex 4.545568e-01 1.141472e-01 1.944393e-01
         vertex 4.545568e-01 1.139818e-01 1.938343e-01
         vertex 4.545568e-01 1.141472e-01 1.938277e-01
      endloop
   endfacet
   facet normal 1.000000e+00 3.199237e-17 -4.883247e-16
      outer loop
         vertex 4.545568e-01 1.141472e-01 1.944393e-01
         vertex 4.545568e-01 1.141472e-01 1.938277e-01
         vertex 4.545568e-01 1.143126e-01 1.938343e-01
      endloop
   endfacet
   facet normal 1.000000e+00 3.199237e-17 -4.883247e-16
      outer loop
         vertex 4.545568e-01 1.128972e-01 1.966044e-01
         vertex 4.545568e-01 1.121733e-01 1.964544e-01
         vertex 4.545568e-01 1.121072e-01 1.961304e-01
      endloop
   endfacet
   facet normal 1.000000e+00 3.199237e-17 -4.883247e-16
      outer loop
         vertex 4.545568e-01 1.143126e-01 1.938343e-01
         vertex 4.545568e-01 1.146390e-01 1.938874e-01
         vertex 4.545568e-01 1.141472e-01 1.944393e-01
      endloop
   endfacet
   facet normal 1.000000e+00 3.199237e-17 -4.883247e-16
      outer loop
         vertex 4.545568e-01 1.141472e-01 1.944393e-01
         vertex 4.545568e-01 1.146390e-01 1.938874e-01
         vertex 4.545568e-01 1.149527e-01 1.939921e-01
      endloop
   endfacet
   facet normal 1.000000e+00 3.199237e-17 -4.883247e-16
      outer loop
         vertex 4.545568e-01 1.141472e-01 1.944393e-01
         vertex 4.545568e-01 1.149527e-01 1.939921e-01
         vertex 4.545568e-01 1.153972e-01 1.951610e-01
      endloop
   endfacet
   facet normal 1.000000e+00 3.199237e-17 -4.883247e-16
      outer loop
         vertex 4.545568e-01 1.153972e-01 1.951610e-01
         vertex 4.545568e-01 1.149527e-01 1.939921e-01
         vertex 4.545568e-01 1.152455e-01 1.941458e-01
      endloop
   endfacet
   facet normal 1.000000e+00 3.199237e-17 -4.883247e-16
      outer loop
         vertex 4.545568e-01 1.153972e-01 1.951610e-01
         vertex 4.545568e-01 1.152455e-01 1.941458e-01
         vertex 4.545568e-01 1.155099e-01 1.943445e-01
      endloop
   endfacet
   facet normal 1.000000e+00 3.199237e-17 -4.883247e-16
      outer loop
         vertex 4.545568e-01 1.125554e-01 1.945830e-01
         vertex 4.545568e-01 1.127845e-01 1.943445e-01
         vertex 4.545568e-01 1.128972e-01 1.951610e-01
      endloop
   endfacet
   facet normal 1.000000e+00 3.199237e-17 -4.883247e-16
      outer loop
         vertex 4.545568e-01 1.128972e-01 1.951610e-01
         vertex 4.545568e-01 1.127845e-01 1.943445e-01
         vertex 4.545568e-01 1.130489e-01 1.941458e-01
      endloop
   endfacet
   facet normal 1.000000e+00 3.199237e-17 -4.883247e-16
      outer loop
         vertex 4.545568e-01 1.128972e-01 1.951610e-01
         vertex 4.545568e-01 1.130489e-01 1.941458e-01
         vertex 4.545568e-01 1.141472e-01 1.944393e-01
      endloop
   endfacet
   facet normal 1.000000e+00 3.199237e-17 -4.883247e-16
      outer loop
         vertex 4.545568e-01 1.141472e-01 1.944393e-01
         vertex 4.545568e-01 1.130489e-01 1.941458e-01
         vertex 4.545568e-01 1.133417e-01 1.939921e-01
      endloop
   endfacet
   facet normal 1.000000e+00 3.199237e-17 -4.883247e-16
      outer loop
         vertex 4.545568e-01 1.141472e-01 1.944393e-01
         vertex 4.545568e-01 1.133417e-01 1.939921e-01
         vertex 4.545568e-01 1.136554e-01 1.938874e-01
      endloop
   endfacet
   facet normal 1.000000e+00 3.199237e-17 -4.883247e-16
      outer loop
         vertex 4.545568e-01 1.121337e-01 1.954716e-01
         vertex 4.545568e-01 1.122257e-01 1.951539e-01
         vertex 4.545568e-01 1.128972e-01 1.951610e-01
      endloop
   endfacet
   facet normal 1.000000e+00 3.199237e-17 -4.883247e-16
      outer loop
         vertex 4.545568e-01 1.128972e-01 1.951610e-01
         vertex 4.545568e-01 1.122257e-01 1.951539e-01
         vertex 4.545568e-01 1.123675e-01 1.948552e-01
      endloop
   endfacet
   facet normal 1.000000e+00 3.199237e-17 -4.883247e-16
      outer loop
         vertex 4.545568e-01 1.128972e-01 1.951610e-01
         vertex 4.545568e-01 1.123675e-01 1.948552e-01
         vertex 4.545568e-01 1.125554e-01 1.945830e-01
      endloop
   endfacet
   facet normal 1.000000e+00 3.199237e-17 -4.883247e-16
      outer loop
         vertex 4.545568e-01 1.147980e-01 1.978319e-01
         vertex 4.545568e-01 1.144769e-01 1.979111e-01
         vertex 4.545568e-01 1.141472e-01 1.973260e-01
      endloop
   endfacet
   facet normal 1.000000e+00 3.199237e-17 -4.883247e-16
      outer loop
         vertex 4.545568e-01 1.141472e-01 1.973260e-01
         vertex 4.545568e-01 1.144769e-01 1.979111e-01
         vertex 4.545568e-01 1.141472e-01 1.979377e-01
      endloop
   endfacet
   facet normal 1.000000e+00 3.199237e-17 -4.883247e-16
      outer loop
         vertex 4.545568e-01 1.141472e-01 1.973260e-01
         vertex 4.545568e-01 1.141472e-01 1.979377e-01
         vertex 4.545568e-01 1.138176e-01 1.979111e-01
      endloop
   endfacet
   facet normal 1.000000e+00 3.199237e-17 -4.883247e-16
      outer loop
         vertex 4.545568e-01 1.155099e-01 1.943445e-01
         vertex 4.545568e-01 1.157390e-01 1.945830e-01
         vertex 4.545568e-01 1.153972e-01 1.951610e-01
      endloop
   endfacet
   facet normal 1.000000e+00 3.199237e-17 -4.883247e-16
      outer loop
         vertex 4.545568e-01 1.153972e-01 1.951610e-01
         vertex 4.545568e-01 1.157390e-01 1.945830e-01
         vertex 4.545568e-01 1.159269e-01 1.948552e-01
      endloop
   endfacet
   facet normal 1.000000e+00 3.199237e-17 -4.883247e-16
      outer loop
         vertex 4.545568e-01 1.153972e-01 1.951610e-01
         vertex 4.545568e-01 1.159269e-01 1.948552e-01
         vertex 4.545568e-01 1.160687e-01 1.951539e-01
      endloop
   endfacet
   facet normal 1.000000e+00 3.199237e-17 -4.883247e-16
      outer loop
         vertex 4.545568e-01 1.128972e-01 1.966044e-01
         vertex 4.545568e-01 1.121072e-01 1.961304e-01
         vertex 4.545568e-01 1.128972e-01 1.951610e-01
      endloop
   endfacet
   facet normal 1.000000e+00 3.199237e-17 -4.883247e-16
      outer loop
         vertex 4.545568e-01 1.128972e-01 1.951610e-01
         vertex 4.545568e-01 1.121072e-01 1.961304e-01
         vertex 4.545568e-01 1.120939e-01 1.957999e-01
      endloop
   endfacet
   facet normal 1.000000e+00 3.199237e-17 -4.883247e-16
      outer loop
         vertex 4.545568e-01 1.128972e-01 1.951610e-01
         vertex 4.545568e-01 1.120939e-01 1.957999e-01
         vertex 4.545568e-01 1.121337e-01 1.954716e-01
      endloop
   endfacet
   facet normal 1.000000e+00 3.199237e-17 -4.883247e-16
      outer loop
         vertex 4.545568e-01 1.126651e-01 1.973062e-01
         vertex 4.545568e-01 1.124560e-01 1.970500e-01
         vertex 4.545568e-01 1.128972e-01 1.966044e-01
      endloop
   endfacet
   facet normal 1.000000e+00 3.199237e-17 -4.883247e-16
      outer loop
         vertex 4.545568e-01 1.128972e-01 1.966044e-01
         vertex 4.545568e-01 1.124560e-01 1.970500e-01
         vertex 4.545568e-01 1.122906e-01 1.967636e-01
      endloop
   endfacet
   facet normal 1.000000e+00 3.199237e-17 -4.883247e-16
      outer loop
         vertex 4.545568e-01 1.128972e-01 1.966044e-01
         vertex 4.545568e-01 1.122906e-01 1.967636e-01
         vertex 4.545568e-01 1.121733e-01 1.964544e-01
      endloop
   endfacet
   facet normal 1.000000e+00 3.199237e-17 -4.883247e-16
      outer loop
         vertex 4.545568e-01 1.158384e-01 1.970500e-01
         vertex 4.545568e-01 1.153972e-01 1.966044e-01
         vertex 4.545568e-01 1.160038e-01 1.967636e-01
      endloop
   endfacet
   facet normal 1.000000e+00 3.199237e-17 -4.883247e-16
      outer loop
         vertex 4.545568e-01 1.160038e-01 1.967636e-01
         vertex 4.545568e-01 1.153972e-01 1.966044e-01
         vertex 4.545568e-01 1.161211e-01 1.964544e-01
      endloop
   endfacet
   facet normal 1.000000e+00 3.199237e-17 -4.883247e-16
      outer loop
         vertex 4.545568e-01 1.138176e-01 1.979111e-01
         vertex 4.545568e-01 1.134965e-01 1.978319e-01
         vertex 4.545568e-01 1.141472e-01 1.973260e-01
      endloop
   endfacet
   facet normal 1.000000e+00 3.199237e-17 -4.883247e-16
      outer loop
         vertex 4.545568e-01 1.141472e-01 1.973260e-01
         vertex 4.545568e-01 1.134965e-01 1.978319e-01
         vertex 4.545568e-01 1.131922e-01 1.977023e-01
      endloop
   endfacet
   facet normal 1.000000e+00 3.199237e-17 -4.883247e-16
      outer loop
         vertex 4.545568e-01 1.141472e-01 1.973260e-01
         vertex 4.545568e-01 1.131922e-01 1.977023e-01
         vertex 4.545568e-01 1.128972e-01 1.966044e-01
      endloop
   endfacet
   facet normal 1.000000e+00 3.199237e-17 -4.883247e-16
      outer loop
         vertex 4.545568e-01 1.128972e-01 1.966044e-01
         vertex 4.545568e-01 1.131922e-01 1.977023e-01
         vertex 4.545568e-01 1.129127e-01 1.975255e-01
      endloop
   endfacet
   facet normal 1.000000e+00 3.199237e-17 -4.883247e-16
      outer loop
         vertex 4.545568e-01 1.128972e-01 1.966044e-01
         vertex 4.545568e-01 1.129127e-01 1.975255e-01
         vertex 4.545568e-01 1.126651e-01 1.973062e-01
      endloop
   endfacet
   facet normal 1.000000e+00 3.199237e-17 -4.883247e-16
      outer loop
         vertex 4.545568e-01 1.158384e-01 1.970500e-01
         vertex 4.545568e-01 1.156293e-01 1.973062e-01
         vertex 4.545568e-01 1.153972e-01 1.966044e-01
      endloop
   endfacet
   facet normal 1.000000e+00 3.199237e-17 -4.883247e-16
      outer loop
         vertex 4.545568e-01 1.153972e-01 1.966044e-01
         vertex 4.545568e-01 1.156293e-01 1.973062e-01
         vertex 4.545568e-01 1.153817e-01 1.975255e-01
      endloop
   endfacet
   facet normal 1.000000e+00 3.199237e-17 -4.883247e-16
      outer loop
         vertex 4.545568e-01 1.153972e-01 1.966044e-01
         vertex 4.545568e-01 1.153817e-01 1.975255e-01
         vertex 4.545568e-01 1.141472e-01 1.973260e-01
      endloop
   endfacet
   facet normal 1.000000e+00 3.199237e-17 -4.883247e-16
      outer loop
         vertex 4.545568e-01 1.141472e-01 1.973260e-01
         vertex 4.545568e-01 1.153817e-01 1.975255e-01
         vertex 4.545568e-01 1.151022e-01 1.977023e-01
      endloop
   endfacet
   facet normal 1.000000e+00 3.199237e-17 -4.883247e-16
      outer loop
         vertex 4.545568e-01 1.141472e-01 1.973260e-01
         vertex 4.545568e-01 1.151022e-01 1.977023e-01
         vertex 4.545568e-01 1.147980e-01 1.978319e-01
      endloop
   endfacet
   facet normal 1.000000e+00 3.199237e-17 -4.883247e-16
      outer loop
         vertex 4.545568e-01 1.160687e-01 1.951539e-01
         vertex 4.545568e-01 1.161607e-01 1.954716e-01
         vertex 4.545568e-01 1.153972e-01 1.951610e-01
      endloop
   endfacet
   facet normal 1.000000e+00 3.199237e-17 -4.883247e-16
      outer loop
         vertex 4.545568e-01 1.153972e-01 1.951610e-01
         vertex 4.545568e-01 1.161607e-01 1.954716e-01
         vertex 4.545568e-01 1.162005e-01 1.957999e-01
      endloop
   endfacet
   facet normal 1.000000e+00 3.199237e-17 -4.883247e-16
      outer loop
         vertex 4.545568e-01 1.153972e-01 1.951610e-01
         vertex 4.545568e-01 1.162005e-01 1.957999e-01
         vertex 4.545568e-01 1.153972e-01 1.966044e-01
      endloop
   endfacet
   facet normal 1.000000e+00 3.199237e-17 -4.883247e-16
      outer loop
         vertex 4.545568e-01 1.153972e-01 1.966044e-01
         vertex 4.545568e-01 1.162005e-01 1.957999e-01
         vertex 4.545568e-01 1.161872e-01 1.961304e-01
      endloop
   endfacet
   facet normal 1.000000e+00 3.199237e-17 -4.883247e-16
      outer loop
         vertex 4.545568e-01 1.153972e-01 1.966044e-01
         vertex 4.545568e-01 1.161872e-01 1.961304e-01
         vertex 4.545568e-01 1.161211e-01 1.964544e-01
      endloop
   endfacet
   facet normal 8.692136e-01 -3.978582e-02 4.928334e-01
      outer loop
         vertex 4.545568e-01 1.138176e-01 1.979111e-01
         vertex 4.545568e-01 1.141472e-01 1.979377e-01
         vertex 4.542999e-01 1.139460e-01 1.983746e-01
      endloop
   endfacet
   facet normal 8.658496e-01 -6.030524e-02 4.966565e-01
      outer loop
         vertex 4.542999e-01 1.139460e-01 1.983746e-01
         vertex 4.542999e-01 1.137462e-01 1.983503e-01
         vertex 4.545568e-01 1.138176e-01 1.979111e-01
      endloop
   endfacet
   facet normal 8.658496e-01 -1.000736e-01 4.901935e-01
      outer loop
         vertex 4.545568e-01 1.138176e-01 1.979111e-01
         vertex 4.542999e-01 1.137462e-01 1.983503e-01
         vertex 4.542999e-01 1.135489e-01 1.983100e-01
      endloop
   endfacet
   facet normal 8.692136e-01 -1.183263e-01 4.800694e-01
      outer loop
         vertex 4.545568e-01 1.138176e-01 1.979111e-01
         vertex 4.542999e-01 1.135489e-01 1.983100e-01
         vertex 4.545568e-01 1.134965e-01 1.978319e-01
      endloop
   endfacet
   facet normal 8.658496e-01 -1.391935e-01 4.805514e-01
      outer loop
         vertex 4.542999e-01 1.135489e-01 1.983100e-01
         vertex 4.542999e-01 1.133555e-01 1.982540e-01
         vertex 4.545568e-01 1.134965e-01 1.978319e-01
      endloop
   endfacet
   facet normal 8.658496e-01 -1.774102e-01 4.677928e-01
      outer loop
         vertex 4.545568e-01 1.134965e-01 1.978319e-01
         vertex 4.542999e-01 1.133555e-01 1.982540e-01
         vertex 4.542999e-01 1.131673e-01 1.981826e-01
      endloop
   endfacet
   facet normal 8.692136e-01 -1.938028e-01 4.548716e-01
      outer loop
         vertex 4.545568e-01 1.134965e-01 1.978319e-01
         vertex 4.542999e-01 1.131673e-01 1.981826e-01
         vertex 4.545568e-01 1.131922e-01 1.977023e-01
      endloop
   endfacet
   facet normal 8.658497e-01 -2.144765e-01 4.520001e-01
      outer loop
         vertex 4.542999e-01 1.131673e-01 1.981826e-01
         vertex 4.542999e-01 1.129854e-01 1.980963e-01
         vertex 4.545568e-01 1.131922e-01 1.977023e-01
      endloop
   endfacet
   facet normal 8.658497e-01 -2.501525e-01 4.332760e-01
      outer loop
         vertex 4.545568e-01 1.131922e-01 1.977023e-01
         vertex 4.542999e-01 1.129854e-01 1.980963e-01
         vertex 4.542999e-01 1.128110e-01 1.979956e-01
      endloop
   endfacet
   facet normal 8.692136e-01 -2.642595e-01 4.178931e-01
      outer loop
         vertex 4.545568e-01 1.131922e-01 1.977023e-01
         vertex 4.542999e-01 1.128110e-01 1.979956e-01
         vertex 4.545568e-01 1.129127e-01 1.975255e-01
      endloop
   endfacet
   facet normal 8.658496e-01 -2.842052e-01 4.117425e-01
      outer loop
         vertex 4.542999e-01 1.128110e-01 1.979956e-01
         vertex 4.542999e-01 1.126454e-01 1.978813e-01
         vertex 4.545568e-01 1.129127e-01 1.975255e-01
      endloop
   endfacet
   facet normal 8.658496e-01 -3.164150e-01 3.875383e-01
      outer loop
         vertex 4.545568e-01 1.129127e-01 1.975255e-01
         vertex 4.542999e-01 1.126454e-01 1.978813e-01
         vertex 4.542999e-01 1.124894e-01 1.977539e-01
      endloop
   endfacet
   facet normal 8.692137e-01 -3.278722e-01 3.700912e-01
      outer loop
         vertex 4.545568e-01 1.129127e-01 1.975255e-01
         vertex 4.542999e-01 1.124894e-01 1.977539e-01
         vertex 4.545568e-01 1.126651e-01 1.973062e-01
      endloop
   endfacet
   facet normal 8.658497e-01 -3.465730e-01 3.608206e-01
      outer loop
         vertex 4.542999e-01 1.124894e-01 1.977539e-01
         vertex 4.542999e-01 1.123442e-01 1.976145e-01
         vertex 4.545568e-01 1.126651e-01 1.973062e-01
      endloop
   endfacet
   facet normal 8.658497e-01 -3.744831e-01 3.317631e-01
      outer loop
         vertex 4.545568e-01 1.126651e-01 1.973062e-01
         vertex 4.542999e-01 1.123442e-01 1.976145e-01
         vertex 4.542999e-01 1.122107e-01 1.974638e-01
      endloop
   endfacet
   facet normal 8.692136e-01 -3.829931e-01 3.127042e-01
      outer loop
         vertex 4.545568e-01 1.126651e-01 1.973062e-01
         vertex 4.542999e-01 1.122107e-01 1.974638e-01
         vertex 4.545568e-01 1.124560e-01 1.970500e-01
      endloop
   endfacet
   facet normal 8.658497e-01 -3.999646e-01 3.005540e-01
      outer loop
         vertex 4.542999e-01 1.122107e-01 1.974638e-01
         vertex 4.542999e-01 1.120897e-01 1.973028e-01
         vertex 4.545568e-01 1.124560e-01 1.970500e-01
      endloop
   endfacet
   facet normal 8.658497e-01 -4.228523e-01 2.673954e-01
      outer loop
         vertex 4.545568e-01 1.124560e-01 1.970500e-01
         vertex 4.542999e-01 1.120897e-01 1.973028e-01
         vertex 4.542999e-01 1.119821e-01 1.971327e-01
      endloop
   endfacet
   facet normal 8.692136e-01 -4.281948e-01 2.472183e-01
      outer loop
         vertex 4.545568e-01 1.124560e-01 1.970500e-01
         vertex 4.542999e-01 1.119821e-01 1.971327e-01
         vertex 4.545568e-01 1.122906e-01 1.967636e-01
      endloop
   endfacet
   facet normal 8.658497e-01 -4.429975e-01 2.325030e-01
      outer loop
         vertex 4.542999e-01 1.119821e-01 1.971327e-01
         vertex 4.542999e-01 1.118886e-01 1.969544e-01
         vertex 4.545568e-01 1.122906e-01 1.967636e-01
      endloop
   endfacet
   facet normal 8.658496e-01 -4.602697e-01 1.961024e-01
      outer loop
         vertex 4.545568e-01 1.122906e-01 1.967636e-01
         vertex 4.542999e-01 1.118886e-01 1.969544e-01
         vertex 4.542999e-01 1.118097e-01 1.967692e-01
      endloop
   endfacet
   facet normal 8.692136e-01 -4.623064e-01 1.753296e-01
      outer loop
         vertex 4.545568e-01 1.122906e-01 1.967636e-01
         vertex 4.542999e-01 1.118097e-01 1.967692e-01
         vertex 4.545568e-01 1.121733e-01 1.964544e-01
      endloop
   endfacet
   facet normal 8.658497e-01 -4.745566e-01 1.584307e-01
      outer loop
         vertex 4.542999e-01 1.118097e-01 1.967692e-01
         vertex 4.542999e-01 1.117459e-01 1.965782e-01
         vertex 4.545568e-01 1.121733e-01 1.964544e-01
      endloop
   endfacet
   facet normal 8.658497e-01 -4.857663e-01 1.197304e-01
      outer loop
         vertex 4.545568e-01 1.121733e-01 1.964544e-01
         vertex 4.542999e-01 1.117459e-01 1.965782e-01
         vertex 4.542999e-01 1.116977e-01 1.963827e-01
      endloop
   endfacet
   facet normal 8.692137e-01 -4.844444e-01 9.890012e-02
      outer loop
         vertex 4.545568e-01 1.121733e-01 1.964544e-01
         vertex 4.542999e-01 1.116977e-01 1.963827e-01
         vertex 4.545568e-01 1.121072e-01 1.961304e-01
      endloop
   endfacet
   facet normal 8.658496e-01 -4.938255e-01 8.025426e-02
      outer loop
         vertex 4.542999e-01 1.116977e-01 1.963827e-01
         vertex 4.542999e-01 1.116654e-01 1.961840e-01
         vertex 4.545568e-01 1.121072e-01 1.961304e-01
      endloop
   endfacet
   facet normal 8.658496e-01 -4.986820e-01 4.025789e-02
      outer loop
         vertex 4.545568e-01 1.121072e-01 1.961304e-01
         vertex 4.542999e-01 1.116654e-01 1.961840e-01
         vertex 4.542999e-01 1.116492e-01 1.959833e-01
      endloop
   endfacet
   facet normal 8.692136e-01 -4.940357e-01 1.990910e-02
      outer loop
         vertex 4.545568e-01 1.121072e-01 1.961304e-01
         vertex 4.542999e-01 1.116492e-01 1.959833e-01
         vertex 4.545568e-01 1.120939e-01 1.957999e-01
      endloop
   endfacet
   facet normal 8.658496e-01 -5.003044e-01 6.165304e-15
      outer loop
         vertex 4.542999e-01 1.116492e-01 1.959833e-01
         vertex 4.542999e-01 1.116492e-01 1.957820e-01
         vertex 4.545568e-01 1.120939e-01 1.957999e-01
      endloop
   endfacet
   facet normal 8.658496e-01 -4.986820e-01 -4.025789e-02
      outer loop
         vertex 4.545568e-01 1.120939e-01 1.957999e-01
         vertex 4.542999e-01 1.116492e-01 1.957820e-01
         vertex 4.542999e-01 1.116654e-01 1.955813e-01
      endloop
   endfacet
   facet normal 8.692136e-01 -4.908318e-01 -5.959782e-02
      outer loop
         vertex 4.545568e-01 1.120939e-01 1.957999e-01
         vertex 4.542999e-01 1.116654e-01 1.955813e-01
         vertex 4.545568e-01 1.121337e-01 1.954716e-01
      endloop
   endfacet
   facet normal 8.658496e-01 -4.938255e-01 -8.025426e-02
      outer loop
         vertex 4.542999e-01 1.116654e-01 1.955813e-01
         vertex 4.542999e-01 1.116977e-01 1.953826e-01
         vertex 4.545568e-01 1.121337e-01 1.954716e-01
      endloop
   endfacet
   facet normal 8.658496e-01 -4.857664e-01 -1.197305e-01
      outer loop
         vertex 4.545568e-01 1.121337e-01 1.954716e-01
         vertex 4.542999e-01 1.116977e-01 1.953826e-01
         vertex 4.542999e-01 1.117459e-01 1.951871e-01
      endloop
   endfacet
   facet normal 8.692137e-01 -4.749154e-01 -1.375609e-01
      outer loop
         vertex 4.545568e-01 1.121337e-01 1.954716e-01
         vertex 4.542999e-01 1.117459e-01 1.951871e-01
         vertex 4.545568e-01 1.122257e-01 1.951539e-01
      endloop
   endfacet
   facet normal 8.658496e-01 -4.745568e-01 -1.584308e-01
      outer loop
         vertex 4.542999e-01 1.117459e-01 1.951871e-01
         vertex 4.542999e-01 1.118097e-01 1.949962e-01
         vertex 4.545568e-01 1.122257e-01 1.951539e-01
      endloop
   endfacet
   facet normal 8.658496e-01 -4.602698e-01 -1.961024e-01
      outer loop
         vertex 4.545568e-01 1.122257e-01 1.951539e-01
         vertex 4.542999e-01 1.118097e-01 1.949962e-01
         vertex 4.542999e-01 1.118886e-01 1.948109e-01
      endloop
   endfacet
   facet normal 8.692136e-01 -4.466991e-01 -2.119613e-01
      outer loop
         vertex 4.545568e-01 1.122257e-01 1.951539e-01
         vertex 4.542999e-01 1.118886e-01 1.948109e-01
         vertex 4.545568e-01 1.123675e-01 1.948552e-01
      endloop
   endfacet
   facet normal 8.658496e-01 -4.429975e-01 -2.325030e-01
      outer loop
         vertex 4.542999e-01 1.118886e-01 1.948109e-01
         vertex 4.542999e-01 1.119821e-01 1.946327e-01
         vertex 4.545568e-01 1.123675e-01 1.948552e-01
      endloop
   endfacet
   facet normal 8.658496e-01 -4.228523e-01 -2.673955e-01
      outer loop
         vertex 4.545568e-01 1.123675e-01 1.948552e-01
         vertex 4.542999e-01 1.119821e-01 1.946327e-01
         vertex 4.542999e-01 1.120897e-01 1.944625e-01
      endloop
   endfacet
   facet normal 8.692137e-01 -4.069133e-01 -2.808721e-01
      outer loop
         vertex 4.545568e-01 1.123675e-01 1.948552e-01
         vertex 4.542999e-01 1.120897e-01 1.944625e-01
         vertex 4.545568e-01 1.125554e-01 1.945830e-01
      endloop
   endfacet
   facet normal 8.658497e-01 -3.999646e-01 -3.005540e-01
      outer loop
         vertex 4.542999e-01 1.120897e-01 1.944625e-01
         vertex 4.542999e-01 1.122107e-01 1.943015e-01
         vertex 4.545568e-01 1.125554e-01 1.945830e-01
      endloop
   endfacet
   facet normal 8.658497e-01 -3.744831e-01 -3.317631e-01
      outer loop
         vertex 4.545568e-01 1.125554e-01 1.945830e-01
         vertex 4.542999e-01 1.122107e-01 1.943015e-01
         vertex 4.542999e-01 1.123442e-01 1.941509e-01
      endloop
   endfacet
   facet normal 8.692137e-01 -3.565889e-01 -3.425083e-01
      outer loop
         vertex 4.545568e-01 1.125554e-01 1.945830e-01
         vertex 4.542999e-01 1.123442e-01 1.941509e-01
         vertex 4.545568e-01 1.127845e-01 1.943445e-01
      endloop
   endfacet
   facet normal 8.658497e-01 -3.465730e-01 -3.608206e-01
      outer loop
         vertex 4.542999e-01 1.123442e-01 1.941509e-01
         vertex 4.542999e-01 1.124894e-01 1.940114e-01
         vertex 4.545568e-01 1.127845e-01 1.943445e-01
      endloop
   endfacet
   facet normal 8.658497e-01 -3.164149e-01 -3.875383e-01
      outer loop
         vertex 4.545568e-01 1.127845e-01 1.943445e-01
         vertex 4.542999e-01 1.124894e-01 1.940114e-01
         vertex 4.542999e-01 1.126454e-01 1.938841e-01
      endloop
   endfacet
   facet normal 8.692136e-01 -2.970290e-01 -3.952739e-01
      outer loop
         vertex 4.545568e-01 1.127845e-01 1.943445e-01
         vertex 4.542999e-01 1.126454e-01 1.938841e-01
         vertex 4.545568e-01 1.130489e-01 1.941458e-01
      endloop
   endfacet
   facet normal 8.658496e-01 -2.842052e-01 -4.117425e-01
      outer loop
         vertex 4.542999e-01 1.126454e-01 1.938841e-01
         vertex 4.542999e-01 1.128110e-01 1.937697e-01
         vertex 4.545568e-01 1.130489e-01 1.941458e-01
      endloop
   endfacet
   facet normal 8.658496e-01 -2.501525e-01 -4.332761e-01
      outer loop
         vertex 4.545568e-01 1.130489e-01 1.941458e-01
         vertex 4.542999e-01 1.128110e-01 1.937697e-01
         vertex 4.542999e-01 1.129854e-01 1.936690e-01
      endloop
   endfacet
   facet normal 8.692137e-01 -2.297762e-01 -4.378019e-01
      outer loop
         vertex 4.545568e-01 1.130489e-01 1.941458e-01
         vertex 4.542999e-01 1.129854e-01 1.936690e-01
         vertex 4.545568e-01 1.133417e-01 1.939921e-01
      endloop
   endfacet
   facet normal 8.658497e-01 -2.144766e-01 -4.520002e-01
      outer loop
         vertex 4.542999e-01 1.129854e-01 1.936690e-01
         vertex 4.542999e-01 1.131673e-01 1.935827e-01
         vertex 4.545568e-01 1.133417e-01 1.939921e-01
      endloop
   endfacet
   facet normal 8.658497e-01 -1.774101e-01 -4.677927e-01
      outer loop
         vertex 4.545568e-01 1.133417e-01 1.939921e-01
         vertex 4.542999e-01 1.131673e-01 1.935827e-01
         vertex 4.542999e-01 1.133555e-01 1.935113e-01
      endloop
   endfacet
   facet normal 8.692136e-01 -1.565725e-01 -4.689913e-01
      outer loop
         vertex 4.545568e-01 1.133417e-01 1.939921e-01
         vertex 4.542999e-01 1.133555e-01 1.935113e-01
         vertex 4.545568e-01 1.136554e-01 1.938874e-01
      endloop
   endfacet
   facet normal 8.658496e-01 -1.391935e-01 -4.805514e-01
      outer loop
         vertex 4.542999e-01 1.133555e-01 1.935113e-01
         vertex 4.542999e-01 1.135489e-01 1.934553e-01
         vertex 4.545568e-01 1.136554e-01 1.938874e-01
      endloop
   endfacet
   facet normal 8.658496e-01 -1.000737e-01 -4.901936e-01
      outer loop
         vertex 4.545568e-01 1.136554e-01 1.938874e-01
         vertex 4.542999e-01 1.135489e-01 1.934553e-01
         vertex 4.542999e-01 1.137462e-01 1.934150e-01
      endloop
   endfacet
   facet normal 8.692136e-01 -7.931304e-02 -4.880340e-01
      outer loop
         vertex 4.545568e-01 1.136554e-01 1.938874e-01
         vertex 4.542999e-01 1.137462e-01 1.934150e-01
         vertex 4.545568e-01 1.139818e-01 1.938343e-01
      endloop
   endfacet
   facet normal 8.658497e-01 -6.030524e-02 -4.966564e-01
      outer loop
         vertex 4.545568e-01 1.139818e-01 1.938343e-01
         vertex 4.542999e-01 1.137462e-01 1.934150e-01
         vertex 4.542999e-01 1.139460e-01 1.933908e-01
      endloop
   endfacet
   facet normal 8.658497e-01 -2.014557e-02 -4.998985e-01
      outer loop
         vertex 4.545568e-01 1.139818e-01 1.938343e-01
         vertex 4.542999e-01 1.139460e-01 1.933908e-01
         vertex 4.545568e-01 1.141472e-01 1.938277e-01
      endloop
   endfacet
   facet normal 8.658496e-01 -2.014515e-02 -4.998986e-01
      outer loop
         vertex 4.545568e-01 1.141472e-01 1.938277e-01
         vertex 4.542999e-01 1.139460e-01 1.933908e-01
         vertex 4.542999e-01 1.141472e-01 1.933827e-01
      endloop
   endfacet
   facet normal 8.658496e-01 2.014557e-02 -4.998986e-01
      outer loop
         vertex 4.545568e-01 1.141472e-01 1.938277e-01
         vertex 4.542999e-01 1.141472e-01 1.933827e-01
         vertex 4.545568e-01 1.143126e-01 1.938343e-01
      endloop
   endfacet
   facet normal 8.658497e-01 2.014514e-02 -4.998985e-01
      outer loop
         vertex 4.542999e-01 1.141472e-01 1.933827e-01
         vertex 4.542999e-01 1.143484e-01 1.933908e-01
         vertex 4.545568e-01 1.143126e-01 1.938343e-01
      endloop
   endfacet
   facet normal 8.658497e-01 6.030524e-02 -4.966564e-01
      outer loop
         vertex 4.545568e-01 1.143126e-01 1.938343e-01
         vertex 4.542999e-01 1.143484e-01 1.933908e-01
         vertex 4.542999e-01 1.145482e-01 1.934150e-01
      endloop
   endfacet
   facet normal 8.692136e-01 7.931304e-02 -4.880340e-01
      outer loop
         vertex 4.545568e-01 1.143126e-01 1.938343e-01
         vertex 4.542999e-01 1.145482e-01 1.934150e-01
         vertex 4.545568e-01 1.146390e-01 1.938874e-01
      endloop
   endfacet
   facet normal 8.658496e-01 1.000737e-01 -4.901936e-01
      outer loop
         vertex 4.542999e-01 1.145482e-01 1.934150e-01
         vertex 4.542999e-01 1.147455e-01 1.934553e-01
         vertex 4.545568e-01 1.146390e-01 1.938874e-01
      endloop
   endfacet
   facet normal 8.658496e-01 1.391935e-01 -4.805514e-01
      outer loop
         vertex 4.545568e-01 1.146390e-01 1.938874e-01
         vertex 4.542999e-01 1.147455e-01 1.934553e-01
         vertex 4.542999e-01 1.149389e-01 1.935113e-01
      endloop
   endfacet
   facet normal 8.692136e-01 1.565725e-01 -4.689913e-01
      outer loop
         vertex 4.545568e-01 1.146390e-01 1.938874e-01
         vertex 4.542999e-01 1.149389e-01 1.935113e-01
         vertex 4.545568e-01 1.149527e-01 1.939921e-01
      endloop
   endfacet
   facet normal 8.658497e-01 1.774101e-01 -4.677927e-01
      outer loop
         vertex 4.542999e-01 1.149389e-01 1.935113e-01
         vertex 4.542999e-01 1.151271e-01 1.935827e-01
         vertex 4.545568e-01 1.149527e-01 1.939921e-01
      endloop
   endfacet
   facet normal 8.658497e-01 2.144766e-01 -4.520002e-01
      outer loop
         vertex 4.545568e-01 1.149527e-01 1.939921e-01
         vertex 4.542999e-01 1.151271e-01 1.935827e-01
         vertex 4.542999e-01 1.153090e-01 1.936690e-01
      endloop
   endfacet
   facet normal 8.692137e-01 2.297762e-01 -4.378019e-01
      outer loop
         vertex 4.545568e-01 1.149527e-01 1.939921e-01
         vertex 4.542999e-01 1.153090e-01 1.936690e-01
         vertex 4.545568e-01 1.152455e-01 1.941458e-01
      endloop
   endfacet
   facet normal 8.658496e-01 2.501525e-01 -4.332761e-01
      outer loop
         vertex 4.542999e-01 1.153090e-01 1.936690e-01
         vertex 4.542999e-01 1.154834e-01 1.937697e-01
         vertex 4.545568e-01 1.152455e-01 1.941458e-01
      endloop
   endfacet
   facet normal 8.658496e-01 2.842052e-01 -4.117425e-01
      outer loop
         vertex 4.545568e-01 1.152455e-01 1.941458e-01
         vertex 4.542999e-01 1.154834e-01 1.937697e-01
         vertex 4.542999e-01 1.156491e-01 1.938841e-01
      endloop
   endfacet
   facet normal 8.692136e-01 2.970290e-01 -3.952739e-01
      outer loop
         vertex 4.545568e-01 1.152455e-01 1.941458e-01
         vertex 4.542999e-01 1.156491e-01 1.938841e-01
         vertex 4.545568e-01 1.155099e-01 1.943445e-01
      endloop
   endfacet
   facet normal 8.658497e-01 3.164149e-01 -3.875383e-01
      outer loop
         vertex 4.542999e-01 1.156491e-01 1.938841e-01
         vertex 4.542999e-01 1.158050e-01 1.940114e-01
         vertex 4.545568e-01 1.155099e-01 1.943445e-01
      endloop
   endfacet
   facet normal 8.658497e-01 3.465730e-01 -3.608206e-01
      outer loop
         vertex 4.545568e-01 1.155099e-01 1.943445e-01
         vertex 4.542999e-01 1.158050e-01 1.940114e-01
         vertex 4.542999e-01 1.159502e-01 1.941509e-01
      endloop
   endfacet
   facet normal 8.692137e-01 3.565889e-01 -3.425083e-01
      outer loop
         vertex 4.545568e-01 1.155099e-01 1.943445e-01
         vertex 4.542999e-01 1.159502e-01 1.941509e-01
         vertex 4.545568e-01 1.157390e-01 1.945830e-01
      endloop
   endfacet
   facet normal 8.658497e-01 3.744831e-01 -3.317631e-01
      outer loop
         vertex 4.542999e-01 1.159502e-01 1.941509e-01
         vertex 4.542999e-01 1.160837e-01 1.943015e-01
         vertex 4.545568e-01 1.157390e-01 1.945830e-01
      endloop
   endfacet
   facet normal 8.658497e-01 3.999646e-01 -3.005540e-01
      outer loop
         vertex 4.545568e-01 1.157390e-01 1.945830e-01
         vertex 4.542999e-01 1.160837e-01 1.943015e-01
         vertex 4.542999e-01 1.162047e-01 1.944625e-01
      endloop
   endfacet
   facet normal 8.692137e-01 4.069133e-01 -2.808721e-01
      outer loop
         vertex 4.545568e-01 1.157390e-01 1.945830e-01
         vertex 4.542999e-01 1.162047e-01 1.944625e-01
         vertex 4.545568e-01 1.159269e-01 1.948552e-01
      endloop
   endfacet
   facet normal 8.658496e-01 4.228523e-01 -2.673955e-01
      outer loop
         vertex 4.542999e-01 1.162047e-01 1.944625e-01
         vertex 4.542999e-01 1.163123e-01 1.946327e-01
         vertex 4.545568e-01 1.159269e-01 1.948552e-01
      endloop
   endfacet
   facet normal 8.658496e-01 4.429975e-01 -2.325030e-01
      outer loop
         vertex 4.545568e-01 1.159269e-01 1.948552e-01
         vertex 4.542999e-01 1.163123e-01 1.946327e-01
         vertex 4.542999e-01 1.164058e-01 1.948109e-01
      endloop
   endfacet
   facet normal 8.692136e-01 4.466991e-01 -2.119613e-01
      outer loop
         vertex 4.545568e-01 1.159269e-01 1.948552e-01
         vertex 4.542999e-01 1.164058e-01 1.948109e-01
         vertex 4.545568e-01 1.160687e-01 1.951539e-01
      endloop
   endfacet
   facet normal 8.658496e-01 4.602698e-01 -1.961024e-01
      outer loop
         vertex 4.542999e-01 1.164058e-01 1.948109e-01
         vertex 4.542999e-01 1.164847e-01 1.949962e-01
         vertex 4.545568e-01 1.160687e-01 1.951539e-01
      endloop
   endfacet
   facet normal 8.658496e-01 4.745568e-01 -1.584308e-01
      outer loop
         vertex 4.545568e-01 1.160687e-01 1.951539e-01
         vertex 4.542999e-01 1.164847e-01 1.949962e-01
         vertex 4.542999e-01 1.165485e-01 1.951871e-01
      endloop
   endfacet
   facet normal 8.692137e-01 4.749154e-01 -1.375609e-01
      outer loop
         vertex 4.545568e-01 1.160687e-01 1.951539e-01
         vertex 4.542999e-01 1.165485e-01 1.951871e-01
         vertex 4.545568e-01 1.161607e-01 1.954716e-01
      endloop
   endfacet
   facet normal 8.658496e-01 4.857664e-01 -1.197305e-01
      outer loop
         vertex 4.542999e-01 1.165485e-01 1.951871e-01
         vertex 4.542999e-01 1.165967e-01 1.953826e-01
         vertex 4.545568e-01 1.161607e-01 1.954716e-01
      endloop
   endfacet
   facet normal 8.658496e-01 4.938255e-01 -8.025426e-02
      outer loop
         vertex 4.545568e-01 1.161607e-01 1.954716e-01
         vertex 4.542999e-01 1.165967e-01 1.953826e-01
         vertex 4.542999e-01 1.166290e-01 1.955813e-01
      endloop
   endfacet
   facet normal 8.692136e-01 4.908318e-01 -5.959782e-02
      outer loop
         vertex 4.545568e-01 1.161607e-01 1.954716e-01
         vertex 4.542999e-01 1.166290e-01 1.955813e-01
         vertex 4.545568e-01 1.162005e-01 1.957999e-01
      endloop
   endfacet
   facet normal 8.658496e-01 4.986820e-01 -4.025789e-02
      outer loop
         vertex 4.542999e-01 1.166290e-01 1.955813e-01
         vertex 4.542999e-01 1.166452e-01 1.957820e-01
         vertex 4.545568e-01 1.162005e-01 1.957999e-01
      endloop
   endfacet
   facet normal 8.658496e-01 5.003044e-01 -7.010935e-15
      outer loop
         vertex 4.545568e-01 1.162005e-01 1.957999e-01
         vertex 4.542999e-01 1.166452e-01 1.957820e-01
         vertex 4.542999e-01 1.166452e-01 1.959833e-01
      endloop
   endfacet
   facet normal 8.692136e-01 4.940357e-01 1.990910e-02
      outer loop
         vertex 4.545568e-01 1.162005e-01 1.957999e-01
         vertex 4.542999e-01 1.166452e-01 1.959833e-01
         vertex 4.545568e-01 1.161872e-01 1.961304e-01
      endloop
   endfacet
   facet normal 8.658496e-01 4.986820e-01 4.025789e-02
      outer loop
         vertex 4.542999e-01 1.166452e-01 1.959833e-01
         vertex 4.542999e-01 1.166290e-01 1.961840e-01
         vertex 4.545568e-01 1.161872e-01 1.961304e-01
      endloop
   endfacet
   facet normal 8.658496e-01 4.938255e-01 8.025426e-02
      outer loop
         vertex 4.545568e-01 1.161872e-01 1.961304e-01
         vertex 4.542999e-01 1.166290e-01 1.961840e-01
         vertex 4.542999e-01 1.165967e-01 1.963827e-01
      endloop
   endfacet
   facet normal 8.692137e-01 4.844444e-01 9.890012e-02
      outer loop
         vertex 4.545568e-01 1.161872e-01 1.961304e-01
         vertex 4.542999e-01 1.165967e-01 1.963827e-01
         vertex 4.545568e-01 1.161211e-01 1.964544e-01
      endloop
   endfacet
   facet normal 8.658497e-01 4.857663e-01 1.197304e-01
      outer loop
         vertex 4.542999e-01 1.165967e-01 1.963827e-01
         vertex 4.542999e-01 1.165485e-01 1.965782e-01
         vertex 4.545568e-01 1.161211e-01 1.964544e-01
      endloop
   endfacet
   facet normal 8.658497e-01 4.745566e-01 1.584307e-01
      outer loop
         vertex 4.545568e-01 1.161211e-01 1.964544e-01
         vertex 4.542999e-01 1.165485e-01 1.965782e-01
         vertex 4.542999e-01 1.164847e-01 1.967692e-01
      endloop
   endfacet
   facet normal 8.692136e-01 4.623064e-01 1.753296e-01
      outer loop
         vertex 4.545568e-01 1.161211e-01 1.964544e-01
         vertex 4.542999e-01 1.164847e-01 1.967692e-01
         vertex 4.545568e-01 1.160038e-01 1.967636e-01
      endloop
   endfacet
   facet normal 8.658496e-01 4.602697e-01 1.961024e-01
      outer loop
         vertex 4.542999e-01 1.164847e-01 1.967692e-01
         vertex 4.542999e-01 1.164058e-01 1.969544e-01
         vertex 4.545568e-01 1.160038e-01 1.967636e-01
      endloop
   endfacet
   facet normal 8.658497e-01 4.429975e-01 2.325030e-01
      outer loop
         vertex 4.545568e-01 1.160038e-01 1.967636e-01
         vertex 4.542999e-01 1.164058e-01 1.969544e-01
         vertex 4.542999e-01 1.163123e-01 1.971327e-01
      endloop
   endfacet
   facet normal 8.692136e-01 4.281948e-01 2.472183e-01
      outer loop
         vertex 4.545568e-01 1.160038e-01 1.967636e-01
         vertex 4.542999e-01 1.163123e-01 1.971327e-01
         vertex 4.545568e-01 1.158384e-01 1.970500e-01
      endloop
   endfacet
   facet normal 8.658497e-01 4.228523e-01 2.673954e-01
      outer loop
         vertex 4.542999e-01 1.163123e-01 1.971327e-01
         vertex 4.542999e-01 1.162047e-01 1.973028e-01
         vertex 4.545568e-01 1.158384e-01 1.970500e-01
      endloop
   endfacet
   facet normal 8.658497e-01 3.999646e-01 3.005540e-01
      outer loop
         vertex 4.545568e-01 1.158384e-01 1.970500e-01
         vertex 4.542999e-01 1.162047e-01 1.973028e-01
         vertex 4.542999e-01 1.160837e-01 1.974638e-01
      endloop
   endfacet
   facet normal 8.692136e-01 3.829931e-01 3.127042e-01
      outer loop
         vertex 4.545568e-01 1.158384e-01 1.970500e-01
         vertex 4.542999e-01 1.160837e-01 1.974638e-01
         vertex 4.545568e-01 1.156293e-01 1.973062e-01
      endloop
   endfacet
   facet normal 8.658497e-01 3.744831e-01 3.317631e-01
      outer loop
         vertex 4.542999e-01 1.160837e-01 1.974638e-01
         vertex 4.542999e-01 1.159502e-01 1.976145e-01
         vertex 4.545568e-01 1.156293e-01 1.973062e-01
      endloop
   endfacet
   facet normal 8.658497e-01 3.465730e-01 3.608206e-01
      outer loop
         vertex 4.545568e-01 1.156293e-01 1.973062e-01
         vertex 4.542999e-01 1.159502e-01 1.976145e-01
         vertex 4.542999e-01 1.158050e-01 1.977539e-01
      endloop
   endfacet
   facet normal 8.692137e-01 3.278722e-01 3.700912e-01
      outer loop
         vertex 4.545568e-01 1.156293e-01 1.973062e-01
         vertex 4.542999e-01 1.158050e-01 1.977539e-01
         vertex 4.545568e-01 1.153817e-01 1.975255e-01
      endloop
   endfacet
   facet normal 8.658496e-01 3.164150e-01 3.875383e-01
      outer loop
         vertex 4.542999e-01 1.158050e-01 1.977539e-01
         vertex 4.542999e-01 1.156491e-01 1.978813e-01
         vertex 4.545568e-01 1.153817e-01 1.975255e-01
      endloop
   endfacet
   facet normal 8.658496e-01 2.842052e-01 4.117425e-01
      outer loop
         vertex 4.545568e-01 1.153817e-01 1.975255e-01
         vertex 4.542999e-01 1.156491e-01 1.978813e-01
         vertex 4.542999e-01 1.154834e-01 1.979956e-01
      endloop
   endfacet
   facet normal 8.692136e-01 2.642595e-01 4.178931e-01
      outer loop
         vertex 4.545568e-01 1.153817e-01 1.975255e-01
         vertex 4.542999e-01 1.154834e-01 1.979956e-01
         vertex 4.545568e-01 1.151022e-01 1.977023e-01
      endloop
   endfacet
   facet normal 8.658497e-01 2.501525e-01 4.332760e-01
      outer loop
         vertex 4.542999e-01 1.154834e-01 1.979956e-01
         vertex 4.542999e-01 1.153090e-01 1.980963e-01
         vertex 4.545568e-01 1.151022e-01 1.977023e-01
      endloop
   endfacet
   facet normal 8.658497e-01 2.144765e-01 4.520001e-01
      outer loop
         vertex 4.545568e-01 1.151022e-01 1.977023e-01
         vertex 4.542999e-01 1.153090e-01 1.980963e-01
         vertex 4.542999e-01 1.151271e-01 1.981826e-01
      endloop
   endfacet
   facet normal 8.692136e-01 1.938028e-01 4.548716e-01
      outer loop
         vertex 4.545568e-01 1.151022e-01 1.977023e-01
         vertex 4.542999e-01 1.151271e-01 1.981826e-01
         vertex 4.545568e-01 1.147980e-01 1.978319e-01
      endloop
   endfacet
   facet normal 8.658496e-01 1.774102e-01 4.677928e-01
      outer loop
         vertex 4.542999e-01 1.151271e-01 1.981826e-01
         vertex 4.542999e-01 1.149389e-01 1.982540e-01
         vertex 4.545568e-01 1.147980e-01 1.978319e-01
      endloop
   endfacet
   facet normal 8.658496e-01 1.391935e-01 4.805514e-01
      outer loop
         vertex 4.545568e-01 1.147980e-01 1.978319e-01
         vertex 4.542999e-01 1.149389e-01 1.982540e-01
         vertex 4.542999e-01 1.147455e-01 1.983100e-01
      endloop
   endfacet
   facet normal 8.692136e-01 1.183263e-01 4.800694e-01
      outer loop
         vertex 4.545568e-01 1.147980e-01 1.978319e-01
         vertex 4.542999e-01 1.147455e-01 1.983100e-01
         vertex 4.545568e-01 1.144769e-01 1.979111e-01
      endloop
   endfacet
   facet normal 8.658496e-01 1.000736e-01 4.901935e-01
      outer loop
         vertex 4.542999e-01 1.147455e-01 1.983100e-01
         vertex 4.542999e-01 1.145482e-01 1.983503e-01
         vertex 4.545568e-01 1.144769e-01 1.979111e-01
      endloop
   endfacet
   facet normal 8.658496e-01 6.030524e-02 4.966565e-01
      outer loop
         vertex 4.545568e-01 1.144769e-01 1.979111e-01
         vertex 4.542999e-01 1.145482e-01 1.983503e-01
         vertex 4.542999e-01 1.143484e-01 1.983746e-01
      endloop
   endfacet
   facet normal 8.692136e-01 3.978582e-02 4.928334e-01
      outer loop
         vertex 4.545568e-01 1.144769e-01 1.979111e-01
         vertex 4.542999e-01 1.143484e-01 1.983746e-01
         vertex 4.545568e-01 1.141472e-01 1.979377e-01
      endloop
   endfacet
   facet normal 8.658496e-01 2.014515e-02 4.998986e-01
      outer loop
         vertex 4.545568e-01 1.141472e-01 1.979377e-01
         vertex 4.542999e-01 1.143484e-01 1.983746e-01
         vertex 4.542999e-01 1.141472e-01 1.983827e-01
      endloop
   endfacet
   facet normal 8.658496e-01 -2.014515e-02 4.998986e-01
      outer loop
         vertex 4.545568e-01 1.141472e-01 1.979377e-01
         vertex 4.542999e-01 1.141472e-01 1.983827e-01
         vertex 4.542999e-01 1.139460e-01 1.983746e-01
      endloop
   endfacet
   facet normal -6.121529e-04 -8.046670e-02 -9.967571e-01
      outer loop
         vertex 4.410568e-01 1.137462e-01 1.934150e-01
         vertex 4.410568e-01 1.141472e-01 1.933827e-01
         vertex 4.542999e-01 1.139460e-01 1.933908e-01
      endloop
   endfacet
   facet normal -4.809079e-16 -1.205371e-01 -9.927088e-01
      outer loop
         vertex 4.542999e-01 1.139460e-01 1.933908e-01
         vertex 4.542999e-01 1.137462e-01 1.934150e-01
         vertex 4.410568e-01 1.137462e-01 1.934150e-01
      endloop
   endfacet
   facet normal -4.720567e-16 -2.000255e-01 -9.797907e-01
      outer loop
         vertex 4.410568e-01 1.137462e-01 1.934150e-01
         vertex 4.542999e-01 1.137462e-01 1.934150e-01
         vertex 4.542999e-01 1.135489e-01 1.934553e-01
      endloop
   endfacet
   facet normal -6.121506e-04 -2.393156e-01 -9.709416e-01
      outer loop
         vertex 4.410568e-01 1.137462e-01 1.934150e-01
         vertex 4.542999e-01 1.135489e-01 1.934553e-01
         vertex 4.410568e-01 1.133555e-01 1.935113e-01
      endloop
   endfacet
   facet normal -4.601438e-16 -2.782176e-01 -9.605181e-01
      outer loop
         vertex 4.542999e-01 1.135489e-01 1.934553e-01
         vertex 4.542999e-01 1.133555e-01 1.935113e-01
         vertex 4.410568e-01 1.133555e-01 1.935113e-01
      endloop
   endfacet
   facet normal -4.452469e-16 -3.546044e-01 -9.350164e-01
      outer loop
         vertex 4.410568e-01 1.133555e-01 1.935113e-01
         vertex 4.542999e-01 1.133555e-01 1.935113e-01
         vertex 4.542999e-01 1.131673e-01 1.935827e-01
      endloop
   endfacet
   facet normal -6.121493e-04 -3.919662e-01 -9.199794e-01
      outer loop
         vertex 4.410568e-01 1.133555e-01 1.935113e-01
         vertex 4.542999e-01 1.131673e-01 1.935827e-01
         vertex 4.410568e-01 1.129854e-01 1.936690e-01
      endloop
   endfacet
   facet normal -4.274623e-16 -4.286923e-01 -9.034506e-01
      outer loop
         vertex 4.542999e-01 1.131673e-01 1.935827e-01
         vertex 4.542999e-01 1.129854e-01 1.936690e-01
         vertex 4.410568e-01 1.129854e-01 1.936690e-01
      endloop
   endfacet
   facet normal -4.069052e-16 -5.000007e-01 -8.660250e-01
      outer loop
         vertex 4.410568e-01 1.129854e-01 1.936690e-01
         vertex 4.542999e-01 1.129854e-01 1.936690e-01
         vertex 4.542999e-01 1.128110e-01 1.937697e-01
      endloop
   endfacet
   facet normal -6.121407e-04 -5.344660e-01 -8.451898e-01
      outer loop
         vertex 4.410568e-01 1.129854e-01 1.936690e-01
         vertex 4.542999e-01 1.128110e-01 1.937697e-01
         vertex 4.410568e-01 1.126454e-01 1.938841e-01
      endloop
   endfacet
   facet normal -3.837096e-16 -5.680646e-01 -8.229840e-01
      outer loop
         vertex 4.542999e-01 1.128110e-01 1.937697e-01
         vertex 4.542999e-01 1.126454e-01 1.938841e-01
         vertex 4.410568e-01 1.126454e-01 1.938841e-01
      endloop
   endfacet
   facet normal -3.580254e-16 -6.324451e-01 -7.746052e-01
      outer loop
         vertex 4.410568e-01 1.126454e-01 1.938841e-01
         vertex 4.542999e-01 1.126454e-01 1.938841e-01
         vertex 4.542999e-01 1.124894e-01 1.940114e-01
      endloop
   endfacet
   facet normal -6.121522e-04 -6.631224e-01 -7.485107e-01
      outer loop
         vertex 4.410568e-01 1.126454e-01 1.938841e-01
         vertex 4.542999e-01 1.124894e-01 1.940114e-01
         vertex 4.410568e-01 1.123442e-01 1.941509e-01
      endloop
   endfacet
   facet normal -3.300190e-16 -6.927244e-01 -7.212024e-01
      outer loop
         vertex 4.542999e-01 1.124894e-01 1.940114e-01
         vertex 4.542999e-01 1.123442e-01 1.941509e-01
         vertex 4.410568e-01 1.123442e-01 1.941509e-01
      endloop
   endfacet
   facet normal -2.998725e-16 -7.485108e-01 -6.631226e-01
      outer loop
         vertex 4.410568e-01 1.123442e-01 1.941509e-01
         vertex 4.542999e-01 1.123442e-01 1.941509e-01
         vertex 4.542999e-01 1.122107e-01 1.943015e-01
      endloop
   endfacet
   facet normal -6.121468e-04 -7.746048e-01 -6.324453e-01
      outer loop
         vertex 4.410568e-01 1.123442e-01 1.941509e-01
         vertex 4.542999e-01 1.122107e-01 1.943015e-01
         vertex 4.410568e-01 1.120897e-01 1.944625e-01
      endloop
   endfacet
   facet normal -2.677813e-16 -7.994427e-01 -6.007424e-01
      outer loop
         vertex 4.542999e-01 1.122107e-01 1.943015e-01
         vertex 4.542999e-01 1.120897e-01 1.944625e-01
         vertex 4.410568e-01 1.120897e-01 1.944625e-01
      endloop
   endfacet
   facet normal -2.339531e-16 -8.451902e-01 -5.344656e-01
      outer loop
         vertex 4.410568e-01 1.120897e-01 1.944625e-01
         vertex 4.542999e-01 1.120897e-01 1.944625e-01
         vertex 4.542999e-01 1.119821e-01 1.946327e-01
      endloop
   endfacet
   facet normal -6.121471e-04 -8.660253e-01 -4.999998e-01
      outer loop
         vertex 4.410568e-01 1.120897e-01 1.944625e-01
         vertex 4.542999e-01 1.119821e-01 1.946327e-01
         vertex 4.410568e-01 1.118886e-01 1.948109e-01
      endloop
   endfacet
   facet normal -1.986079e-16 -8.854561e-01 -4.647231e-01
      outer loop
         vertex 4.542999e-01 1.119821e-01 1.946327e-01
         vertex 4.542999e-01 1.118886e-01 1.948109e-01
         vertex 4.410568e-01 1.118886e-01 1.948109e-01
      endloop
   endfacet
   facet normal -1.619745e-16 -9.199796e-01 -3.919663e-01
      outer loop
         vertex 4.410568e-01 1.118886e-01 1.948109e-01
         vertex 4.542999e-01 1.118886e-01 1.948109e-01
         vertex 4.542999e-01 1.118097e-01 1.949962e-01
      endloop
   endfacet
   facet normal -6.121393e-04 -9.350160e-01 -3.546050e-01
      outer loop
         vertex 4.410568e-01 1.118886e-01 1.948109e-01
         vertex 4.542999e-01 1.118097e-01 1.949962e-01
         vertex 4.410568e-01 1.117459e-01 1.951871e-01
      endloop
   endfacet
   facet normal -1.242913e-16 -9.485362e-01 -3.166688e-01
      outer loop
         vertex 4.542999e-01 1.118097e-01 1.949962e-01
         vertex 4.542999e-01 1.117459e-01 1.951871e-01
         vertex 4.410568e-01 1.117459e-01 1.951871e-01
      endloop
   endfacet
   facet normal -8.580083e-17 -9.709419e-01 -2.393153e-01
      outer loop
         vertex 4.410568e-01 1.117459e-01 1.951871e-01
         vertex 4.542999e-01 1.117459e-01 1.951871e-01
         vertex 4.542999e-01 1.116977e-01 1.953826e-01
      endloop
   endfacet
   facet normal -6.121484e-04 -9.797905e-01 -2.000253e-01
      outer loop
         vertex 4.410568e-01 1.117459e-01 1.951871e-01
         vertex 4.542999e-01 1.116977e-01 1.953826e-01
         vertex 4.410568e-01 1.116654e-01 1.955813e-01
      endloop
   endfacet
   facet normal -4.675452e-17 -9.870503e-01 -1.604109e-01
      outer loop
         vertex 4.542999e-01 1.116977e-01 1.953826e-01
         vertex 4.542999e-01 1.116654e-01 1.955813e-01
         vertex 4.410568e-01 1.116654e-01 1.955813e-01
      endloop
   endfacet
   facet normal -7.405295e-18 -9.967573e-01 -8.046680e-02
      outer loop
         vertex 4.410568e-01 1.116654e-01 1.955813e-01
         vertex 4.542999e-01 1.116654e-01 1.955813e-01
         vertex 4.542999e-01 1.116492e-01 1.957820e-01
      endloop
   endfacet
   facet normal -6.121500e-04 -9.991888e-01 -4.026605e-02
      outer loop
         vertex 4.410568e-01 1.116654e-01 1.955813e-01
         vertex 4.542999e-01 1.116492e-01 1.957820e-01
         vertex 4.410568e-01 1.116492e-01 1.959833e-01
      endloop
   endfacet
   facet normal 3.199237e-17 -1.000000e+00 1.316822e-14
      outer loop
         vertex 4.542999e-01 1.116492e-01 1.957820e-01
         vertex 4.542999e-01 1.116492e-01 1.959833e-01
         vertex 4.410568e-01 1.116492e-01 1.959833e-01
      endloop
   endfacet
   facet normal 7.118255e-17 -9.967573e-01 8.046680e-02
      outer loop
         vertex 4.410568e-01 1.116492e-01 1.959833e-01
         vertex 4.542999e-01 1.116492e-01 1.959833e-01
         vertex 4.542999e-01 1.116654e-01 1.961840e-01
      endloop
   endfacet
   facet normal -6.121435e-04 -9.927087e-01 1.205366e-01
      outer loop
         vertex 4.410568e-01 1.116492e-01 1.959833e-01
         vertex 4.542999e-01 1.116654e-01 1.961840e-01
         vertex 4.410568e-01 1.116977e-01 1.963827e-01
      endloop
   endfacet
   facet normal 1.099107e-16 -9.870503e-01 1.604109e-01
      outer loop
         vertex 4.542999e-01 1.116654e-01 1.961840e-01
         vertex 4.542999e-01 1.116977e-01 1.963827e-01
         vertex 4.410568e-01 1.116977e-01 1.963827e-01
      endloop
   endfacet
   facet normal 1.479263e-16 -9.709419e-01 2.393153e-01
      outer loop
         vertex 4.410568e-01 1.116977e-01 1.963827e-01
         vertex 4.542999e-01 1.116977e-01 1.963827e-01
         vertex 4.542999e-01 1.117459e-01 1.965782e-01
      endloop
   endfacet
   facet normal -6.121574e-04 -9.605179e-01 2.782176e-01
      outer loop
         vertex 4.410568e-01 1.116977e-01 1.963827e-01
         vertex 4.542999e-01 1.117459e-01 1.965782e-01
         vertex 4.410568e-01 1.118097e-01 1.967692e-01
      endloop
   endfacet
   facet normal 1.849831e-16 -9.485362e-01 3.166688e-01
      outer loop
         vertex 4.542999e-01 1.117459e-01 1.965782e-01
         vertex 4.542999e-01 1.118097e-01 1.967692e-01
         vertex 4.410568e-01 1.118097e-01 1.967692e-01
      endloop
   endfacet
   facet normal 2.208391e-16 -9.199796e-01 3.919663e-01
      outer loop
         vertex 4.410568e-01 1.118097e-01 1.967692e-01
         vertex 4.542999e-01 1.118097e-01 1.967692e-01
         vertex 4.542999e-01 1.118886e-01 1.969544e-01
      endloop
   endfacet
   facet normal -6.121505e-04 -9.034504e-01 4.286923e-01
      outer loop
         vertex 4.410568e-01 1.118097e-01 1.967692e-01
         vertex 4.542999e-01 1.118886e-01 1.969544e-01
         vertex 4.410568e-01 1.119821e-01 1.971327e-01
      endloop
   endfacet
   facet normal 2.552636e-16 -8.854561e-01 4.647231e-01
      outer loop
         vertex 4.542999e-01 1.118886e-01 1.969544e-01
         vertex 4.542999e-01 1.119821e-01 1.971327e-01
         vertex 4.410568e-01 1.119821e-01 1.971327e-01
      endloop
   endfacet
   facet normal 2.880324e-16 -8.451902e-01 5.344656e-01
      outer loop
         vertex 4.410568e-01 1.119821e-01 1.971327e-01
         vertex 4.542999e-01 1.119821e-01 1.971327e-01
         vertex 4.542999e-01 1.120897e-01 1.973028e-01
      endloop
   endfacet
   facet normal -6.121510e-04 -8.229837e-01 5.680646e-01
      outer loop
         vertex 4.410568e-01 1.119821e-01 1.971327e-01
         vertex 4.542999e-01 1.120897e-01 1.973028e-01
         vertex 4.410568e-01 1.122107e-01 1.974638e-01
      endloop
   endfacet
   facet normal 3.189334e-16 -7.994427e-01 6.007424e-01
      outer loop
         vertex 4.542999e-01 1.120897e-01 1.973028e-01
         vertex 4.542999e-01 1.122107e-01 1.974638e-01
         vertex 4.410568e-01 1.122107e-01 1.974638e-01
      endloop
   endfacet
   facet normal 3.477658e-16 -7.485108e-01 6.631226e-01
      outer loop
         vertex 4.410568e-01 1.122107e-01 1.974638e-01
         vertex 4.542999e-01 1.122107e-01 1.974638e-01
         vertex 4.542999e-01 1.123442e-01 1.976145e-01
      endloop
   endfacet
   facet normal -6.121477e-04 -7.212024e-01 6.927242e-01
      outer loop
         vertex 4.410568e-01 1.122107e-01 1.974638e-01
         vertex 4.542999e-01 1.123442e-01 1.976145e-01
         vertex 4.410568e-01 1.124894e-01 1.977539e-01
      endloop
   endfacet
   facet normal 3.743428e-16 -6.927244e-01 7.212024e-01
      outer loop
         vertex 4.542999e-01 1.123442e-01 1.976145e-01
         vertex 4.542999e-01 1.124894e-01 1.977539e-01
         vertex 4.410568e-01 1.124894e-01 1.977539e-01
      endloop
   endfacet
   facet normal 3.984922e-16 -6.324451e-01 7.746052e-01
      outer loop
         vertex 4.410568e-01 1.124894e-01 1.977539e-01
         vertex 4.542999e-01 1.124894e-01 1.977539e-01
         vertex 4.542999e-01 1.126454e-01 1.978813e-01
      endloop
   endfacet
   facet normal -6.121470e-04 -6.007419e-01 7.994428e-01
      outer loop
         vertex 4.410568e-01 1.124894e-01 1.977539e-01
         vertex 4.542999e-01 1.126454e-01 1.978813e-01
         vertex 4.410568e-01 1.128110e-01 1.979956e-01
      endloop
   endfacet
   facet normal 4.200571e-16 -5.680646e-01 8.229840e-01
      outer loop
         vertex 4.542999e-01 1.126454e-01 1.978813e-01
         vertex 4.542999e-01 1.128110e-01 1.979956e-01
         vertex 4.410568e-01 1.128110e-01 1.979956e-01
      endloop
   endfacet
   facet normal 4.388976e-16 -5.000007e-01 8.660250e-01
      outer loop
         vertex 4.410568e-01 1.128110e-01 1.979956e-01
         vertex 4.542999e-01 1.128110e-01 1.979956e-01
         vertex 4.542999e-01 1.129854e-01 1.980963e-01
      endloop
   endfacet
   facet normal -6.121568e-04 -4.647233e-01 8.854557e-01
      outer loop
         vertex 4.410568e-01 1.128110e-01 1.979956e-01
         vertex 4.542999e-01 1.129854e-01 1.980963e-01
         vertex 4.410568e-01 1.131673e-01 1.981826e-01
      endloop
   endfacet
   facet normal 4.548921e-16 -4.286923e-01 9.034506e-01
      outer loop
         vertex 4.542999e-01 1.129854e-01 1.980963e-01
         vertex 4.542999e-01 1.131673e-01 1.981826e-01
         vertex 4.410568e-01 1.131673e-01 1.981826e-01
      endloop
   endfacet
   facet normal 4.679362e-16 -3.546044e-01 9.350164e-01
      outer loop
         vertex 4.410568e-01 1.131673e-01 1.981826e-01
         vertex 4.542999e-01 1.131673e-01 1.981826e-01
         vertex 4.542999e-01 1.133555e-01 1.982540e-01
      endloop
   endfacet
   facet normal -6.121435e-04 -3.166678e-01 9.485363e-01
      outer loop
         vertex 4.410568e-01 1.131673e-01 1.981826e-01
         vertex 4.542999e-01 1.133555e-01 1.982540e-01
         vertex 4.410568e-01 1.135489e-01 1.983100e-01
      endloop
   endfacet
   facet normal 4.779455e-16 -2.782176e-01 9.605181e-01
      outer loop
         vertex 4.542999e-01 1.133555e-01 1.982540e-01
         vertex 4.542999e-01 1.135489e-01 1.983100e-01
         vertex 4.410568e-01 1.135489e-01 1.983100e-01
      endloop
   endfacet
   facet normal 4.848552e-16 -2.000255e-01 9.797907e-01
      outer loop
         vertex 4.410568e-01 1.135489e-01 1.983100e-01
         vertex 4.542999e-01 1.135489e-01 1.983100e-01
         vertex 4.542999e-01 1.137462e-01 1.983503e-01
      endloop
   endfacet
   facet normal -6.121437e-04 -1.604114e-01 9.870501e-01
      outer loop
         vertex 4.410568e-01 1.135489e-01 1.983100e-01
         vertex 4.542999e-01 1.137462e-01 1.983503e-01
         vertex 4.410568e-01 1.139460e-01 1.983746e-01
      endloop
   endfacet
   facet normal 4.886205e-16 -1.205371e-01 9.927088e-01
      outer loop
         vertex 4.542999e-01 1.137462e-01 1.983503e-01
         vertex 4.542999e-01 1.139460e-01 1.983746e-01
         vertex 4.410568e-01 1.139460e-01 1.983746e-01
      endloop
   endfacet
   facet normal 4.892168e-16 -4.026578e-02 9.991890e-01
      outer loop
         vertex 4.410568e-01 1.139460e-01 1.983746e-01
         vertex 4.542999e-01 1.139460e-01 1.983746e-01
         vertex 4.542999e-01 1.141472e-01 1.983827e-01
      endloop
   endfacet
   facet normal -6.121458e-04 1.316820e-14 9.999998e-01
      outer loop
         vertex 4.410568e-01 1.139460e-01 1.983746e-01
         vertex 4.542999e-01 1.141472e-01 1.983827e-01
         vertex 4.410568e-01 1.143484e-01 1.983746e-01
      endloop
   endfacet
   facet normal 4.866404e-16 4.026578e-02 9.991890e-01
      outer loop
         vertex 4.542999e-01 1.141472e-01 1.983827e-01
         vertex 4.542999e-01 1.143484e-01 1.983746e-01
         vertex 4.410568e-01 1.143484e-01 1.983746e-01
      endloop
   endfacet
   facet normal 4.809079e-16 1.205371e-01 9.927088e-01
      outer loop
         vertex 4.410568e-01 1.143484e-01 1.983746e-01
         vertex 4.542999e-01 1.143484e-01 1.983746e-01
         vertex 4.542999e-01 1.145482e-01 1.983503e-01
      endloop
   endfacet
   facet normal -6.121437e-04 1.604114e-01 9.870501e-01
      outer loop
         vertex 4.410568e-01 1.143484e-01 1.983746e-01
         vertex 4.542999e-01 1.145482e-01 1.983503e-01
         vertex 4.410568e-01 1.147455e-01 1.983100e-01
      endloop
   endfacet
   facet normal 4.720567e-16 2.000255e-01 9.797907e-01
      outer loop
         vertex 4.542999e-01 1.145482e-01 1.983503e-01
         vertex 4.542999e-01 1.147455e-01 1.983100e-01
         vertex 4.410568e-01 1.147455e-01 1.983100e-01
      endloop
   endfacet
   facet normal 4.601438e-16 2.782176e-01 9.605181e-01
      outer loop
         vertex 4.410568e-01 1.147455e-01 1.983100e-01
         vertex 4.542999e-01 1.147455e-01 1.983100e-01
         vertex 4.542999e-01 1.149389e-01 1.982540e-01
      endloop
   endfacet
   facet normal -6.121435e-04 3.166678e-01 9.485363e-01
      outer loop
         vertex 4.410568e-01 1.147455e-01 1.983100e-01
         vertex 4.542999e-01 1.149389e-01 1.982540e-01
         vertex 4.410568e-01 1.151271e-01 1.981826e-01
      endloop
   endfacet
   facet normal 4.452469e-16 3.546044e-01 9.350164e-01
      outer loop
         vertex 4.542999e-01 1.149389e-01 1.982540e-01
         vertex 4.542999e-01 1.151271e-01 1.981826e-01
         vertex 4.410568e-01 1.151271e-01 1.981826e-01
      endloop
   endfacet
   facet normal 4.274623e-16 4.286923e-01 9.034506e-01
      outer loop
         vertex 4.410568e-01 1.151271e-01 1.981826e-01
         vertex 4.542999e-01 1.151271e-01 1.981826e-01
         vertex 4.542999e-01 1.153090e-01 1.980963e-01
      endloop
   endfacet
   facet normal -6.121568e-04 4.647233e-01 8.854557e-01
      outer loop
         vertex 4.410568e-01 1.151271e-01 1.981826e-01
         vertex 4.542999e-01 1.153090e-01 1.980963e-01
         vertex 4.410568e-01 1.154834e-01 1.979956e-01
      endloop
   endfacet
   facet normal 4.069052e-16 5.000007e-01 8.660250e-01
      outer loop
         vertex 4.542999e-01 1.153090e-01 1.980963e-01
         vertex 4.542999e-01 1.154834e-01 1.979956e-01
         vertex 4.410568e-01 1.154834e-01 1.979956e-01
      endloop
   endfacet
   facet normal 3.837096e-16 5.680646e-01 8.229840e-01
      outer loop
         vertex 4.410568e-01 1.154834e-01 1.979956e-01
         vertex 4.542999e-01 1.154834e-01 1.979956e-01
         vertex 4.542999e-01 1.156491e-01 1.978813e-01
      endloop
   endfacet
   facet normal -6.121470e-04 6.007419e-01 7.994428e-01
      outer loop
         vertex 4.410568e-01 1.154834e-01 1.979956e-01
         vertex 4.542999e-01 1.156491e-01 1.978813e-01
         vertex 4.410568e-01 1.158050e-01 1.977539e-01
      endloop
   endfacet
   facet normal 3.580254e-16 6.324451e-01 7.746052e-01
      outer loop
         vertex 4.542999e-01 1.156491e-01 1.978813e-01
         vertex 4.542999e-01 1.158050e-01 1.977539e-01
         vertex 4.410568e-01 1.158050e-01 1.977539e-01
      endloop
   endfacet
   facet normal 3.300190e-16 6.927244e-01 7.212024e-01
      outer loop
         vertex 4.410568e-01 1.158050e-01 1.977539e-01
         vertex 4.542999e-01 1.158050e-01 1.977539e-01
         vertex 4.542999e-01 1.159502e-01 1.976145e-01
      endloop
   endfacet
   facet normal -6.121477e-04 7.212024e-01 6.927242e-01
      outer loop
         vertex 4.410568e-01 1.158050e-01 1.977539e-01
         vertex 4.542999e-01 1.159502e-01 1.976145e-01
         vertex 4.410568e-01 1.160837e-01 1.974638e-01
      endloop
   endfacet
   facet normal 2.998725e-16 7.485108e-01 6.631226e-01
      outer loop
         vertex 4.542999e-01 1.159502e-01 1.976145e-01
         vertex 4.542999e-01 1.160837e-01 1.974638e-01
         vertex 4.410568e-01 1.160837e-01 1.974638e-01
      endloop
   endfacet
   facet normal 2.677813e-16 7.994427e-01 6.007424e-01
      outer loop
         vertex 4.410568e-01 1.160837e-01 1.974638e-01
         vertex 4.542999e-01 1.160837e-01 1.974638e-01
         vertex 4.542999e-01 1.162047e-01 1.973028e-01
      endloop
   endfacet
   facet normal -6.121510e-04 8.229837e-01 5.680646e-01
      outer loop
         vertex 4.410568e-01 1.160837e-01 1.974638e-01
         vertex 4.542999e-01 1.162047e-01 1.973028e-01
         vertex 4.410568e-01 1.163123e-01 1.971327e-01
      endloop
   endfacet
   facet normal 2.339531e-16 8.451902e-01 5.344656e-01
      outer loop
         vertex 4.542999e-01 1.162047e-01 1.973028e-01
         vertex 4.542999e-01 1.163123e-01 1.971327e-01
         vertex 4.410568e-01 1.163123e-01 1.971327e-01
      endloop
   endfacet
   facet normal 1.986079e-16 8.854561e-01 4.647231e-01
      outer loop
         vertex 4.410568e-01 1.163123e-01 1.971327e-01
         vertex 4.542999e-01 1.163123e-01 1.971327e-01
         vertex 4.542999e-01 1.164058e-01 1.969544e-01
      endloop
   endfacet
   facet normal -6.121505e-04 9.034504e-01 4.286923e-01
      outer loop
         vertex 4.410568e-01 1.163123e-01 1.971327e-01
         vertex 4.542999e-01 1.164058e-01 1.969544e-01
         vertex 4.410568e-01 1.164847e-01 1.967692e-01
      endloop
   endfacet
   facet normal 1.619745e-16 9.199796e-01 3.919663e-01
      outer loop
         vertex 4.542999e-01 1.164058e-01 1.969544e-01
         vertex 4.542999e-01 1.164847e-01 1.967692e-01
         vertex 4.410568e-01 1.164847e-01 1.967692e-01
      endloop
   endfacet
   facet normal 1.242913e-16 9.485362e-01 3.166688e-01
      outer loop
         vertex 4.410568e-01 1.164847e-01 1.967692e-01
         vertex 4.542999e-01 1.164847e-01 1.967692e-01
         vertex 4.542999e-01 1.165485e-01 1.965782e-01
      endloop
   endfacet
   facet normal -6.121574e-04 9.605179e-01 2.782176e-01
      outer loop
         vertex 4.410568e-01 1.164847e-01 1.967692e-01
         vertex 4.542999e-01 1.165485e-01 1.965782e-01
         vertex 4.410568e-01 1.165967e-01 1.963827e-01
      endloop
   endfacet
   facet normal 8.580083e-17 9.709419e-01 2.393153e-01
      outer loop
         vertex 4.542999e-01 1.165485e-01 1.965782e-01
         vertex 4.542999e-01 1.165967e-01 1.963827e-01
         vertex 4.410568e-01 1.165967e-01 1.963827e-01
      endloop
   endfacet
   facet normal 4.675452e-17 9.870503e-01 1.604109e-01
      outer loop
         vertex 4.410568e-01 1.165967e-01 1.963827e-01
         vertex 4.542999e-01 1.165967e-01 1.963827e-01
         vertex 4.542999e-01 1.166290e-01 1.961840e-01
      endloop
   endfacet
   facet normal -6.121435e-04 9.927087e-01 1.205366e-01
      outer loop
         vertex 4.410568e-01 1.165967e-01 1.963827e-01
         vertex 4.542999e-01 1.166290e-01 1.961840e-01
         vertex 4.410568e-01 1.166452e-01 1.959833e-01
      endloop
   endfacet
   facet normal 7.405295e-18 9.967573e-01 8.046680e-02
      outer loop
         vertex 4.542999e-01 1.166290e-01 1.961840e-01
         vertex 4.542999e-01 1.166452e-01 1.959833e-01
         vertex 4.410568e-01 1.166452e-01 1.959833e-01
      endloop
   endfacet
   facet normal -3.199237e-17 1.000000e+00 -1.316822e-14
      outer loop
         vertex 4.410568e-01 1.166452e-01 1.959833e-01
         vertex 4.542999e-01 1.166452e-01 1.959833e-01
         vertex 4.542999e-01 1.166452e-01 1.957820e-01
      endloop
   endfacet
   facet normal -6.121500e-04 9.991888e-01 -4.026605e-02
      outer loop
         vertex 4.410568e-01 1.166452e-01 1.959833e-01
         vertex 4.542999e-01 1.166452e-01 1.957820e-01
         vertex 4.410568e-01 1.166290e-01 1.955813e-01
      endloop
   endfacet
   facet normal -7.118255e-17 9.967573e-01 -8.046680e-02
      outer loop
         vertex 4.542999e-01 1.166452e-01 1.957820e-01
         vertex 4.542999e-01 1.166290e-01 1.955813e-01
         vertex 4.410568e-01 1.166290e-01 1.955813e-01
      endloop
   endfacet
   facet normal -1.099107e-16 9.870503e-01 -1.604109e-01
      outer loop
         vertex 4.410568e-01 1.166290e-01 1.955813e-01
         vertex 4.542999e-01 1.166290e-01 1.955813e-01
         vertex 4.542999e-01 1.165967e-01 1.953826e-01
      endloop
   endfacet
   facet normal -6.121484e-04 9.797905e-01 -2.000253e-01
      outer loop
         vertex 4.410568e-01 1.166290e-01 1.955813e-01
         vertex 4.542999e-01 1.165967e-01 1.953826e-01
         vertex 4.410568e-01 1.165485e-01 1.951871e-01
      endloop
   endfacet
   facet normal -1.479263e-16 9.709419e-01 -2.393153e-01
      outer loop
         vertex 4.542999e-01 1.165967e-01 1.953826e-01
         vertex 4.542999e-01 1.165485e-01 1.951871e-01
         vertex 4.410568e-01 1.165485e-01 1.951871e-01
      endloop
   endfacet
   facet normal -1.849831e-16 9.485362e-01 -3.166688e-01
      outer loop
         vertex 4.410568e-01 1.165485e-01 1.951871e-01
         vertex 4.542999e-01 1.165485e-01 1.951871e-01
         vertex 4.542999e-01 1.164847e-01 1.949962e-01
      endloop
   endfacet
   facet normal -6.121393e-04 9.350160e-01 -3.546050e-01
      outer loop
         vertex 4.410568e-01 1.165485e-01 1.951871e-01
         vertex 4.542999e-01 1.164847e-01 1.949962e-01
         vertex 4.410568e-01 1.164058e-01 1.948109e-01
      endloop
   endfacet
   facet normal -2.208391e-16 9.199796e-01 -3.919663e-01
      outer loop
         vertex 4.542999e-01 1.164847e-01 1.949962e-01
         vertex 4.542999e-01 1.164058e-01 1.948109e-01
         vertex 4.410568e-01 1.164058e-01 1.948109e-01
      endloop
   endfacet
   facet normal -2.552636e-16 8.854561e-01 -4.647231e-01
      outer loop
         vertex 4.410568e-01 1.164058e-01 1.948109e-01
         vertex 4.542999e-01 1.164058e-01 1.948109e-01
         vertex 4.542999e-01 1.163123e-01 1.946327e-01
      endloop
   endfacet
   facet normal -6.121471e-04 8.660253e-01 -4.999998e-01
      outer loop
         vertex 4.410568e-01 1.164058e-01 1.948109e-01
         vertex 4.542999e-01 1.163123e-01 1.946327e-01
         vertex 4.410568e-01 1.162047e-01 1.944625e-01
      endloop
   endfacet
   facet normal -2.880324e-16 8.451902e-01 -5.344656e-01
      outer loop
         vertex 4.542999e-01 1.163123e-01 1.946327e-01
         vertex 4.542999e-01 1.162047e-01 1.944625e-01
         vertex 4.410568e-01 1.162047e-01 1.944625e-01
      endloop
   endfacet
   facet normal -3.189334e-16 7.994427e-01 -6.007424e-01
      outer loop
         vertex 4.410568e-01 1.162047e-01 1.944625e-01
         vertex 4.542999e-01 1.162047e-01 1.944625e-01
         vertex 4.542999e-01 1.160837e-01 1.943015e-01
      endloop
   endfacet
   facet normal -6.121468e-04 7.746048e-01 -6.324453e-01
      outer loop
         vertex 4.410568e-01 1.162047e-01 1.944625e-01
         vertex 4.542999e-01 1.160837e-01 1.943015e-01
         vertex 4.410568e-01 1.159502e-01 1.941509e-01
      endloop
   endfacet
   facet normal -3.477658e-16 7.485108e-01 -6.631226e-01
      outer loop
         vertex 4.542999e-01 1.160837e-01 1.943015e-01
         vertex 4.542999e-01 1.159502e-01 1.941509e-01
         vertex 4.410568e-01 1.159502e-01 1.941509e-01
      endloop
   endfacet
   facet normal -3.743428e-16 6.927244e-01 -7.212024e-01
      outer loop
         vertex 4.410568e-01 1.159502e-01 1.941509e-01
         vertex 4.542999e-01 1.159502e-01 1.941509e-01
         vertex 4.542999e-01 1.158050e-01 1.940114e-01
      endloop
   endfacet
   facet normal -6.121522e-04 6.631224e-01 -7.485107e-01
      outer loop
         vertex 4.410568e-01 1.159502e-01 1.941509e-01
         vertex 4.542999e-01 1.158050e-01 1.940114e-01
         vertex 4.410568e-01 1.156491e-01 1.938841e-01
      endloop
   endfacet
   facet normal -3.984922e-16 6.324451e-01 -7.746052e-01
      outer loop
         vertex 4.542999e-01 1.158050e-01 1.940114e-01
         vertex 4.542999e-01 1.156491e-01 1.938841e-01
         vertex 4.410568e-01 1.156491e-01 1.938841e-01
      endloop
   endfacet
   facet normal -4.200571e-16 5.680646e-01 -8.229840e-01
      outer loop
         vertex 4.410568e-01 1.156491e-01 1.938841e-01
         vertex 4.542999e-01 1.156491e-01 1.938841e-01
         vertex 4.542999e-01 1.154834e-01 1.937697e-01
      endloop
   endfacet
   facet normal -6.121407e-04 5.344660e-01 -8.451898e-01
      outer loop
         vertex 4.410568e-01 1.156491e-01 1.938841e-01
         vertex 4.542999e-01 1.154834e-01 1.937697e-01
         vertex 4.410568e-01 1.153090e-01 1.936690e-01
      endloop
   endfacet
   facet normal -4.388976e-16 5.000007e-01 -8.660250e-01
      outer loop
         vertex 4.542999e-01 1.154834e-01 1.937697e-01
         vertex 4.542999e-01 1.153090e-01 1.936690e-01
         vertex 4.410568e-01 1.153090e-01 1.936690e-01
      endloop
   endfacet
   facet normal -4.548921e-16 4.286923e-01 -9.034506e-01
      outer loop
         vertex 4.410568e-01 1.153090e-01 1.936690e-01
         vertex 4.542999e-01 1.153090e-01 1.936690e-01
         vertex 4.542999e-01 1.151271e-01 1.935827e-01
      endloop
   endfacet
   facet normal -6.121493e-04 3.919662e-01 -9.199794e-01
      outer loop
         vertex 4.410568e-01 1.153090e-01 1.936690e-01
         vertex 4.542999e-01 1.151271e-01 1.935827e-01
         vertex 4.410568e-01 1.149389e-01 1.935113e-01
      endloop
   endfacet
   facet normal -4.679362e-16 3.546044e-01 -9.350164e-01
      outer loop
         vertex 4.542999e-01 1.151271e-01 1.935827e-01
         vertex 4.542999e-01 1.149389e-01 1.935113e-01
         vertex 4.410568e-01 1.149389e-01 1.935113e-01
      endloop
   endfacet
   facet normal -4.779455e-16 2.782176e-01 -9.605181e-01
      outer loop
         vertex 4.410568e-01 1.149389e-01 1.935113e-01
         vertex 4.542999e-01 1.149389e-01 1.935113e-01
         vertex 4.542999e-01 1.147455e-01 1.934553e-01
      endloop
   endfacet
   facet normal -6.121506e-04 2.393156e-01 -9.709416e-01
      outer loop
         vertex 4.410568e-01 1.149389e-01 1.935113e-01
         vertex 4.542999e-01 1.147455e-01 1.934553e-01
         vertex 4.410568e-01 1.145482e-01 1.934150e-01
      endloop
   endfacet
   facet normal -4.848552e-16 2.000255e-01 -9.797907e-01
      outer loop
         vertex 4.542999e-01 1.147455e-01 1.934553e-01
         vertex 4.542999e-01 1.145482e-01 1.934150e-01
         vertex 4.410568e-01 1.145482e-01 1.934150e-01
      endloop
   endfacet
   facet normal -4.886205e-16 1.205371e-01 -9.927088e-01
      outer loop
         vertex 4.410568e-01 1.145482e-01 1.934150e-01
         vertex 4.542999e-01 1.145482e-01 1.934150e-01
         vertex 4.542999e-01 1.143484e-01 1.933908e-01
      endloop
   endfacet
   facet normal -6.121529e-04 8.046670e-02 -9.967571e-01
      outer loop
         vertex 4.410568e-01 1.145482e-01 1.934150e-01
         vertex 4.542999e-01 1.143484e-01 1.933908e-01
         vertex 4.410568e-01 1.141472e-01 1.933827e-01
      endloop
   endfacet
   facet normal -4.892168e-16 4.026578e-02 -9.991890e-01
      outer loop
         vertex 4.410568e-01 1.141472e-01 1.933827e-01
         vertex 4.542999e-01 1.143484e-01 1.933908e-01
         vertex 4.542999e-01 1.141472e-01 1.933827e-01
      endloop
   endfacet
   facet normal -4.866404e-16 -4.026578e-02 -9.991890e-01
      outer loop
         vertex 4.410568e-01 1.141472e-01 1.933827e-01
         vertex 4.542999e-01 1.141472e-01 1.933827e-01
         vertex 4.542999e-01 1.139460e-01 1.933908e-01
      endloop
   endfacet
   facet normal -7.059575e-01 1.694963e-01 -6.876737e-01
      outer loop
         vertex 4.410568e-01 1.149389e-01 1.935113e-01
         vertex 4.410568e-01 1.145482e-01 1.934150e-01
         vertex 4.385568e-01 1.141472e-01 1.958827e-01
      endloop
   endfacet
   facet normal -7.059575e-01 2.776117e-01 -6.515794e-01
      outer loop
         vertex 4.410568e-01 1.149389e-01 1.935113e-01
         vertex 4.385568e-01 1.141472e-01 1.958827e-01
         vertex 4.410568e-01 1.153090e-01 1.936690e-01
      endloop
   endfacet
   facet normal -7.059575e-01 3.785378e-01 -5.986094e-01
      outer loop
         vertex 4.410568e-01 1.156491e-01 1.938841e-01
         vertex 4.410568e-01 1.153090e-01 1.936690e-01
         vertex 4.385568e-01 1.141472e-01 1.958827e-01
      endloop
   endfacet
   facet normal -7.059575e-01 4.696594e-01 -5.301360e-01
      outer loop
         vertex 4.410568e-01 1.159502e-01 1.941509e-01
         vertex 4.410568e-01 1.156491e-01 1.938841e-01
         vertex 4.385568e-01 1.141472e-01 1.958827e-01
      endloop
   endfacet
   facet normal -7.059575e-01 5.486172e-01 -4.479321e-01
      outer loop
         vertex 4.410568e-01 1.162047e-01 1.944625e-01
         vertex 4.410568e-01 1.159502e-01 1.941509e-01
         vertex 4.385568e-01 1.141472e-01 1.958827e-01
      endloop
   endfacet
   facet normal -7.059575e-01 6.133662e-01 -3.541270e-01
      outer loop
         vertex 4.410568e-01 1.164058e-01 1.948109e-01
         vertex 4.410568e-01 1.162047e-01 1.944625e-01
         vertex 4.385568e-01 1.141472e-01 1.958827e-01
      endloop
   endfacet
   facet normal -7.059575e-01 6.622292e-01 -2.511506e-01
      outer loop
         vertex 4.410568e-01 1.165485e-01 1.951871e-01
         vertex 4.410568e-01 1.164058e-01 1.948109e-01
         vertex 4.385568e-01 1.141472e-01 1.958827e-01
      endloop
   endfacet
   facet normal -7.059575e-01 6.939409e-01 -1.416688e-01
      outer loop
         vertex 4.410568e-01 1.166290e-01 1.955813e-01
         vertex 4.410568e-01 1.165485e-01 1.951871e-01
         vertex 4.385568e-01 1.141472e-01 1.958827e-01
      endloop
   endfacet
   facet normal -7.059575e-01 7.076798e-01 -2.851860e-02
      outer loop
         vertex 4.410568e-01 1.166452e-01 1.959833e-01
         vertex 4.410568e-01 1.166290e-01 1.955813e-01
         vertex 4.385568e-01 1.141472e-01 1.958827e-01
      endloop
   endfacet
   facet normal -7.059575e-01 7.030903e-01 8.537055e-02
      outer loop
         vertex 4.410568e-01 1.165967e-01 1.963827e-01
         vertex 4.410568e-01 1.166452e-01 1.959833e-01
         vertex 4.385568e-01 1.141472e-01 1.958827e-01
      endloop
   endfacet
   facet normal -7.059575e-01 6.802910e-01 1.970489e-01
      outer loop
         vertex 4.410568e-01 1.164847e-01 1.967692e-01
         vertex 4.410568e-01 1.165967e-01 1.963827e-01
         vertex 4.385568e-01 1.141472e-01 1.958827e-01
      endloop
   endfacet
   facet normal -7.059575e-01 6.398727e-01 3.036232e-01
      outer loop
         vertex 4.410568e-01 1.163123e-01 1.971327e-01
         vertex 4.410568e-01 1.164847e-01 1.967692e-01
         vertex 4.385568e-01 1.141472e-01 1.958827e-01
      endloop
   endfacet
   facet normal -7.059575e-01 5.828818e-01 4.023342e-01
      outer loop
         vertex 4.410568e-01 1.160837e-01 1.974638e-01
         vertex 4.410568e-01 1.163123e-01 1.971327e-01
         vertex 4.385568e-01 1.141472e-01 1.958827e-01
      endloop
   endfacet
   facet normal -7.059575e-01 5.107947e-01 4.906249e-01
      outer loop
         vertex 4.410568e-01 1.158050e-01 1.977539e-01
         vertex 4.410568e-01 1.160837e-01 1.974638e-01
         vertex 4.385568e-01 1.141472e-01 1.958827e-01
      endloop
   endfacet
   facet normal -7.059575e-01 4.254781e-01 5.662089e-01
      outer loop
         vertex 4.410568e-01 1.154834e-01 1.979956e-01
         vertex 4.410568e-01 1.158050e-01 1.977539e-01
         vertex 4.385568e-01 1.141472e-01 1.958827e-01
      endloop
   endfacet
   facet normal -7.059575e-01 3.291423e-01 6.271279e-01
      outer loop
         vertex 4.410568e-01 1.151271e-01 1.981826e-01
         vertex 4.410568e-01 1.154834e-01 1.979956e-01
         vertex 4.385568e-01 1.141472e-01 1.958827e-01
      endloop
   endfacet
   facet normal -7.059575e-01 2.242813e-01 6.718050e-01
      outer loop
         vertex 4.410568e-01 1.147455e-01 1.983100e-01
         vertex 4.410568e-01 1.151271e-01 1.981826e-01
         vertex 4.385568e-01 1.141472e-01 1.958827e-01
      endloop
   endfacet
   facet normal -7.059575e-01 1.136121e-01 6.990825e-01
      outer loop
         vertex 4.410568e-01 1.143484e-01 1.983746e-01
         vertex 4.410568e-01 1.147455e-01 1.983100e-01
         vertex 4.385568e-01 1.141472e-01 1.958827e-01
      endloop
   endfacet
   facet normal -7.059575e-01 9.303864e-15 7.082542e-01
      outer loop
         vertex 4.410568e-01 1.139460e-01 1.983746e-01
         vertex 4.410568e-01 1.143484e-01 1.983746e-01
         vertex 4.385568e-01 1.141472e-01 1.958827e-01
      endloop
   endfacet
   facet normal -7.059575e-01 -1.136121e-01 6.990825e-01
      outer loop
         vertex 4.410568e-01 1.135489e-01 1.983100e-01
         vertex 4.410568e-01 1.139460e-01 1.983746e-01
         vertex 4.385568e-01 1.141472e-01 1.958827e-01
      endloop
   endfacet
   facet normal -7.059575e-01 -2.242813e-01 6.718050e-01
      outer loop
         vertex 4.410568e-01 1.131673e-01 1.981826e-01
         vertex 4.410568e-01 1.135489e-01 1.983100e-01
         vertex 4.385568e-01 1.141472e-01 1.958827e-01
      endloop
   endfacet
   facet normal -7.059575e-01 -3.291423e-01 6.271279e-01
      outer loop
         vertex 4.410568e-01 1.128110e-01 1.979956e-01
         vertex 4.410568e-01 1.131673e-01 1.981826e-01
         vertex 4.385568e-01 1.141472e-01 1.958827e-01
      endloop
   endfacet
   facet normal -7.059575e-01 -4.254781e-01 5.662089e-01
      outer loop
         vertex 4.410568e-01 1.124894e-01 1.977539e-01
         vertex 4.410568e-01 1.128110e-01 1.979956e-01
         vertex 4.385568e-01 1.141472e-01 1.958827e-01
      endloop
   endfacet
   facet normal -7.059575e-01 -5.107947e-01 4.906249e-01
      outer loop
         vertex 4.410568e-01 1.122107e-01 1.974638e-01
         vertex 4.410568e-01 1.124894e-01 1.977539e-01
         vertex 4.385568e-01 1.141472e-01 1.958827e-01
      endloop
   endfacet
   facet normal -7.059575e-01 -5.828818e-01 4.023342e-01
      outer loop
         vertex 4.410568e-01 1.119821e-01 1.971327e-01
         vertex 4.410568e-01 1.122107e-01 1.974638e-01
         vertex 4.385568e-01 1.141472e-01 1.958827e-01
      endloop
   endfacet
   facet normal -7.059575e-01 -6.398727e-01 3.036232e-01
      outer loop
         vertex 4.410568e-01 1.118097e-01 1.967692e-01
         vertex 4.410568e-01 1.119821e-01 1.971327e-01
         vertex 4.385568e-01 1.141472e-01 1.958827e-01
      endloop
   endfacet
   facet normal -7.059575e-01 -6.802910e-01 1.970489e-01
      outer loop
         vertex 4.410568e-01 1.116977e-01 1.963827e-01
         vertex 4.410568e-01 1.118097e-01 1.967692e-01
         vertex 4.385568e-01 1.141472e-01 1.958827e-01
      endloop
   endfacet
   facet normal -7.059575e-01 -7.030903e-01 8.537055e-02
      outer loop
         vertex 4.410568e-01 1.116492e-01 1.959833e-01
         vertex 4.410568e-01 1.116977e-01 1.963827e-01
         vertex 4.385568e-01 1.141472e-01 1.958827e-01
      endloop
   endfacet
   facet normal -7.059575e-01 -7.076798e-01 -2.851860e-02
      outer loop
         vertex 4.410568e-01 1.116654e-01 1.955813e-01
         vertex 4.410568e-01 1.116492e-01 1.959833e-01
         vertex 4.385568e-01 1.141472e-01 1.958827e-01
      endloop
   endfacet
   facet normal -7.059575e-01 -6.939409e-01 -1.416688e-01
      outer loop
         vertex 4.410568e-01 1.117459e-01 1.951871e-01
         vertex 4.410568e-01 1.116654e-01 1.955813e-01
         vertex 4.385568e-01 1.141472e-01 1.958827e-01
      endloop
   endfacet
   facet normal -7.059575e-01 -6.622292e-01 -2.511506e-01
      outer loop
         vertex 4.410568e-01 1.118886e-01 1.948109e-01
         vertex 4.410568e-01 1.117459e-01 1.951871e-01
         vertex 4.385568e-01 1.141472e-01 1.958827e-01
      endloop
   endfacet
   facet normal -7.059575e-01 -6.133662e-01 -3.541270e-01
      outer loop
         vertex 4.410568e-01 1.120897e-01 1.944625e-01
         vertex 4.410568e-01 1.118886e-01 1.948109e-01
         vertex 4.385568e-01 1.141472e-01 1.958827e-01
      endloop
   endfacet
   facet normal -7.059575e-01 -5.486172e-01 -4.479321e-01
      outer loop
         vertex 4.410568e-01 1.123442e-01 1.941509e-01
         vertex 4.410568e-01 1.120897e-01 1.944625e-01
         vertex 4.385568e-01 1.141472e-01 1.958827e-01
      endloop
   endfacet
   facet normal -7.059575e-01 -4.696594e-01 -5.301360e-01
      outer loop
         vertex 4.410568e-01 1.126454e-01 1.938841e-01
         vertex 4.410568e-01 1.123442e-01 1.941509e-01
         vertex 4.385568e-01 1.141472e-01 1.958827e-01
      endloop
   endfacet
   facet normal -7.059575e-01 -3.785378e-01 -5.986094e-01
      outer loop
         vertex 4.410568e-01 1.129854e-01 1.936690e-01
         vertex 4.410568e-01 1.126454e-01 1.938841e-01
         vertex 4.385568e-01 1.141472e-01 1.958827e-01
      endloop
   endfacet
   facet normal -7.059575e-01 -2.776117e-01 -6.515794e-01
      outer loop
         vertex 4.410568e-01 1.133555e-01 1.935113e-01
         vertex 4.410568e-01 1.129854e-01 1.936690e-01
         vertex 4.385568e-01 1.141472e-01 1.958827e-01
      endloop
   endfacet
   facet normal -7.059575e-01 -1.694963e-01 -6.876737e-01
      outer loop
         vertex 4.410568e-01 1.137462e-01 1.934150e-01
         vertex 4.410568e-01 1.133555e-01 1.935113e-01
         vertex 4.385568e-01 1.141472e-01 1.958827e-01
      endloop
   endfacet
   facet normal -7.059575e-01 -5.699089e-02 -7.059576e-01
      outer loop
         vertex 4.410568e-01 1.141472e-01 1.933827e-01
         vertex 4.410568e-01 1.137462e-01 1.934150e-01
         vertex 4.385568e-01 1.141472e-01 1.958827e-01
      endloop
   endfacet
   facet normal -7.059575e-01 5.699089e-02 -7.059576e-01
      outer loop
         vertex 4.410568e-01 1.145482e-01 1.934150e-01
         vertex 4.410568e-01 1.141472e-01 1.933827e-01
         vertex 4.385568e-01 1.141472e-01 1.958827e-01
      endloop
   endfacet
   facet normal 4.388977e-16 -5.000000e-01 8.660254e-01
      outer loop
         vertex 4.515568e-01 1.153972e-01 1.951610e-01
         vertex 4.515568e-01 1.141472e-01 1.944393e-01
         vertex 4.545568e-01 1.153972e-01 1.951610e-01
      endloop
   endfacet
   facet normal 4.388977e-16 -5.000000e-01 8.660254e-01
      outer loop
         vertex 4.545568e-01 1.153972e-01 1.951610e-01
         vertex 4.515568e-01 1.141472e-01 1.944393e-01
         vertex 4.545568e-01 1.141472e-01 1.944393e-01
      endloop
   endfacet
   facet normal 4.069054e-16 5.000000e-01 8.660254e-01
      outer loop
         vertex 4.515568e-01 1.141472e-01 1.944393e-01
         vertex 4.515568e-01 1.128972e-01 1.951610e-01
         vertex 4.545568e-01 1.141472e-01 1.944393e-01
      endloop
   endfacet
   facet normal 4.069054e-16 5.000000e-01 8.660254e-01
      outer loop
         vertex 4.545568e-01 1.141472e-01 1.944393e-01
         vertex 4.515568e-01 1.128972e-01 1.951610e-01
         vertex 4.545568e-01 1.128972e-01 1.951610e-01
      endloop
   endfacet
   facet normal -3.199237e-17 1.000000e+00 -1.316822e-14
      outer loop
         vertex 4.515568e-01 1.128972e-01 1.951610e-01
         vertex 4.515568e-01 1.128972e-01 1.966044e-01
         vertex 4.545568e-01 1.128972e-01 1.951610e-01
      endloop
   endfacet
   facet normal -3.199237e-17 1.000000e+00 -1.316822e-14
      outer loop
         vertex 4.545568e-01 1.128972e-01 1.951610e-01
         vertex 4.515568e-01 1.128972e-01 1.966044e-01
         vertex 4.545568e-01 1.128972e-01 1.966044e-01
      endloop
   endfacet
   facet normal -4.388977e-16 5.000000e-01 -8.660254e-01
      outer loop
         vertex 4.515568e-01 1.128972e-01 1.966044e-01
         vertex 4.515568e-01 1.141472e-01 1.973260e-01
         vertex 4.545568e-01 1.128972e-01 1.966044e-01
      endloop
   endfacet
   facet normal -4.388977e-16 5.000000e-01 -8.660254e-01
      outer loop
         vertex 4.545568e-01 1.128972e-01 1.966044e-01
         vertex 4.515568e-01 1.141472e-01 1.973260e-01
         vertex 4.545568e-01 1.141472e-01 1.973260e-01
      endloop
   endfacet
   facet normal -4.069054e-16 -5.000000e-01 -8.660254e-01
      outer loop
         vertex 4.515568e-01 1.141472e-01 1.973260e-01
         vertex 4.515568e-01 1.153972e-01 1.966044e-01
         vertex 4.545568e-01 1.141472e-01 1.973260e-01
      endloop
   endfacet
   facet normal -4.069054e-16 -5.000000e-01 -8.660254e-01
      outer loop
         vertex 4.545568e-01 1.141472e-01 1.973260e-01
         vertex 4.515568e-01 1.153972e-01 1.966044e-01
         vertex 4.545568e-01 1.153972e-01 1.966044e-01
      endloop
   endfacet
   facet normal 3.199237e-17 -1.000000e+00 1.316822e-14
      outer loop
         vertex 4.515568e-01 1.153972e-01 1.966044e-01
         vertex 4.515568e-01 1.153972e-01 1.951610e-01
         vertex 4.545568e-01 1.153972e-01 1.966044e-01
      endloop
   endfacet
   facet normal 3.199237e-17 -1.000000e+00 1.316822e-14
      outer loop
         vertex 4.545568e-01 1.153972e-01 1.966044e-01
         vertex 4.515568e-01 1.153972e-01 1.951610e-01
         vertex 4.545568e-01 1.153972e-01 1.951610e-01
      endloop
   endfacet
   facet normal 1.000000e+00 3.199237e-17 -4.883247e-16
      outer loop
         vertex 4.515568e-01 1.141472e-01 1.973260e-01
         vertex 4.515568e-01 1.128972e-01 1.966044e-01
         vertex 4.515568e-01 1.153972e-01 1.966044e-01
      endloop
   endfacet
   facet normal 1.000000e+00 3.199237e-17 -4.883247e-16
      outer loop
         vertex 4.515568e-01 1.153972e-01 1.966044e-01
         vertex 4.515568e-01 1.128972e-01 1.966044e-01
         vertex 4.515568e-01 1.128972e-01 1.951610e-01
      endloop
   endfacet
   facet normal 1.000000e+00 3.199237e-17 -4.883247e-16
      outer loop
         vertex 4.515568e-01 1.153972e-01 1.966044e-01
         vertex 4.515568e-01 1.128972e-01 1.951610e-01
         vertex 4.515568e-01 1.153972e-01 1.951610e-01
      endloop
   endfacet
   facet normal 1.000000e+00 3.199237e-17 -4.883247e-16
      outer loop
         vertex 4.515568e-01 1.153972e-01 1.951610e-01
         vertex 4.515568e-01 1.128972e-01 1.951610e-01
         vertex 4.515568e-01 1.141472e-01 1.944393e-01
      endloop
   endfacet
endsolid